<svg width="200" height="59" viewBox="0 0 200 59" fill="none" xmlns="http://www.w3.org/2000/svg">
<path fill-rule="evenodd" clip-rule="evenodd" d="M167.302 0.770752C167.851 0.937736 168.274 1.2552 168.571 1.72313C168.165 2.18916 167.636 2.40091 166.984 2.35805C167.226 2.11424 167.544 1.95551 167.937 1.88186C167.381 1.46313 166.746 1.3044 166.032 1.40567C166.455 1.19393 166.878 0.982498 167.302 0.770752Z" fill="#333333"/>
<path fill-rule="evenodd" clip-rule="evenodd" d="M168.571 1.72314C169.547 3.00568 169.282 3.95807 167.778 4.58029C166.272 4.24283 166.008 3.50219 166.984 2.35807C167.636 2.40092 168.165 2.18918 168.571 1.72314Z" fill="#333333"/>
<path fill-rule="evenodd" clip-rule="evenodd" d="M161.587 2.35798C120.636 2.99227 79.578 3.20402 38.4126 2.9929C79.3637 2.35862 120.422 2.14687 161.587 2.35798Z" fill="#333333"/>
<path fill-rule="evenodd" clip-rule="evenodd" d="M161.587 2.35803C161.874 2.58311 161.98 2.90057 161.905 3.31041C120.688 3.41613 79.5234 3.31041 38.4126 2.99295C79.578 3.20406 120.636 2.99232 161.587 2.35803Z" fill="#333333"/>
<path fill-rule="evenodd" clip-rule="evenodd" d="M164.127 18.5485C164.127 19.1834 164.127 19.8183 164.127 20.4532C163.492 20.4532 162.857 20.4532 162.222 20.4532C162.673 20.1513 163.202 20.0456 163.809 20.1358C163.719 19.5278 163.825 18.9989 164.127 18.5485Z" fill="#333333"/>
<path fill-rule="evenodd" clip-rule="evenodd" d="M195.238 30.9295C195.041 31.2872 194.776 31.6047 194.444 31.8818C194.344 31.2196 194.186 30.5847 193.968 29.9771C194.177 29.1339 194.177 28.2342 193.968 27.2787C194.443 27.1177 194.814 27.2765 195.079 27.7549C195.237 28.8079 195.29 29.866 195.238 30.9295Z" fill="#333333"/>
<path fill-rule="evenodd" clip-rule="evenodd" d="M200 29.6596C198.792 30.0005 197.628 30.424 196.508 30.9294C195.581 29.8539 195.686 28.9015 196.825 28.0723C197.913 28.6161 198.971 29.145 200 29.6596Z" fill="#333333"/>
<path fill-rule="evenodd" clip-rule="evenodd" d="M5.71424 31.8818C5.50259 31.7761 5.29097 31.6701 5.07932 31.5644C4.55846 30.1199 4.66427 28.7444 5.39678 27.4374C5.64373 28.1675 5.96119 28.8552 6.34916 29.5009C5.79192 30.3031 5.58027 31.0967 5.71424 31.8818Z" fill="#333333"/>
<path fill-rule="evenodd" clip-rule="evenodd" d="M2.85714 28.0723C3.20102 28.0846 3.51848 28.1907 3.80952 28.3897C4.23279 29.1304 4.23279 29.8713 3.80952 30.6119C3.55762 30.7488 3.29308 30.8548 3.01587 30.9294C2.07806 30.3285 1.07276 29.8523 0 29.5008C1.06038 29.1824 2.01276 28.7062 2.85714 28.0723Z" fill="#333333"/>
<path fill-rule="evenodd" clip-rule="evenodd" d="M38.0952 3.94536C37.9936 6.26472 37.0413 8.16949 35.2381 9.65965C36.4492 11.5158 36.5022 13.4206 35.3968 15.3739C34.7613 12.3819 32.9095 11.059 29.8413 11.4057C28.7372 10.5466 28.6313 9.59425 29.5238 8.54853C29.0697 8.09139 28.5406 7.98536 27.9365 8.23107C26.9841 8.76028 26.0317 9.28917 25.0794 9.81838C27.0191 10.5409 28.3947 11.8638 29.2063 13.7866C30.7117 13.9816 32.1933 14.246 33.6508 14.5803C35.6365 16.0387 36.4832 17.9965 36.1905 20.4533C37.1768 20.406 38.1292 20.5647 39.0476 20.9295C40.7778 22.7473 42.1533 24.8108 43.1746 27.12C44.0098 26.3555 44.8035 26.3555 45.5555 27.12C45.7098 28.8635 44.9162 29.4454 43.1746 28.866C41.8559 27.3927 40.6917 25.8054 39.6825 24.1041C37.1844 23.8612 35.0679 24.6549 33.3333 26.485C33.8038 27.1146 34.333 27.6965 34.9206 28.2311C35.5949 28.7333 36.2825 28.7863 36.9841 28.3898C37.034 27.5977 37.087 26.8571 37.1428 26.1676C38.3724 26.4038 38.9016 27.1444 38.7301 28.3898C39.8635 28.1971 40.7101 28.5676 41.2698 29.5009C40.6962 30.4412 39.8498 30.9174 38.7301 30.9295C38.6181 32.213 37.9832 32.7422 36.8254 32.5168C37.1492 31.9035 37.2022 31.2685 36.9841 30.612C35.3498 30.4003 34.133 31.0882 33.3333 32.6755C34.8203 33.9647 36.5136 34.8641 38.4127 35.3739C39.4143 35.1676 40.2079 34.6384 40.7936 33.7866C41.2698 32.8343 41.746 31.8819 42.2222 30.9295C43.1416 29.8885 44.2 29.7298 45.3968 30.4533C45.7314 30.8939 45.7841 31.3701 45.5555 31.8819C44.7686 32.705 43.9749 32.705 43.1746 31.8819C42.3003 33.313 41.5067 34.7943 40.7936 36.3263C39.6873 37.9638 38.153 38.8104 36.1905 38.866C36.0686 40.1631 35.8041 41.433 35.3968 42.6755C33.9654 44.7581 32.0076 45.499 29.5238 44.8977C28.527 46.9 27.0455 48.4343 25.0794 49.5009C25.9197 49.9133 26.7662 50.3365 27.619 50.7708C28.2789 51.0273 28.9139 50.9743 29.5238 50.612C28.6133 49.5025 28.7191 48.4971 29.8413 47.5962C32.733 47.9247 34.5847 46.7079 35.3968 43.9454C36.38 45.7384 36.433 47.5904 35.5555 49.5009C36.359 50.4181 37.047 51.4235 37.619 52.5168C38.0374 53.4393 38.1435 54.3917 37.9365 55.3739C36.306 58.7952 34.0838 59.3244 31.2698 56.9612C30.7514 54.9939 31.4394 54.253 33.3333 54.739C33.9584 56.0749 33.5349 56.8685 32.0635 57.12C33.7368 58.1866 35.0597 57.8162 36.0317 56.0089C36.2787 53.1327 34.9559 51.5454 32.0635 51.247C30.4847 50.9993 29.5853 51.6343 29.3651 53.1517C29.1869 53.3174 28.9752 53.4231 28.7301 53.4692C27.3398 52.1006 25.8054 50.8308 24.127 49.6597C21.7953 50.1882 19.6789 49.712 17.7778 48.2311C15.1897 45.4682 14.5548 42.2936 15.873 38.7073C15.1465 38.4463 14.4058 38.2346 13.6508 38.0723C12.1509 36.1768 10.7753 34.2193 9.52379 32.1993C9.42506 31.8889 9.21341 31.6771 8.88887 31.5644C6.79554 32.0876 6.26646 31.3996 7.30157 29.5009C6.6997 28.9269 6.54097 28.239 6.82538 27.4374C7.61075 27.1311 8.4044 27.0781 9.20633 27.2787C10.5416 25.5082 11.7586 23.6565 12.8571 21.7231C13.7487 20.9863 14.754 20.4571 15.873 20.1358C15.6831 19.7247 15.5243 19.3016 15.3968 18.866C14.7425 12.059 17.8642 8.77838 24.7619 9.02472C25.4941 8.07711 26.4465 7.5479 27.619 7.43742C27.6106 5.68631 28.2984 5.26314 29.6825 6.16758C29.8751 7.58472 30.7216 8.21965 32.2222 8.07234C35.3403 7.33647 36.5041 5.43171 35.7143 2.35806C34.4121 1.18758 33.0895 1.13456 31.746 2.19933C32.1692 2.19933 32.5927 2.19933 33.0159 2.19933C33.8267 2.9606 33.8267 3.70123 33.0159 4.42155C31.2698 4.59837 30.6879 3.80472 31.2698 2.0406C34.3184 -0.118769 36.5936 0.516152 38.0952 3.94536Z" fill="#333333"/>
<path fill-rule="evenodd" clip-rule="evenodd" d="M28.8888 43.6279C27.9939 43.1209 27.0415 42.9622 26.0316 43.1517C25.3725 43.7498 25.2666 44.4377 25.7142 45.2152C26.7463 45.6784 27.487 45.3609 27.9364 44.2628C27.9916 45.473 27.4625 46.4784 26.3491 47.2787C25.6158 47.4365 24.875 47.4892 24.1269 47.4374C24.0192 45.7136 24.178 44.0203 24.603 42.358C26.2024 41.1901 27.7897 40.0263 29.3649 38.866C29.6755 37.8599 29.5168 36.9603 28.8888 36.1676C29.0622 35.8739 29.2739 35.6095 29.5237 35.3739C30.8449 34.6031 32.2205 34.2857 33.6507 34.4215C33.717 34.6076 33.823 34.7663 33.9681 34.8977C33.203 35.3936 32.7795 36.0815 32.6983 36.9612C33.6211 38.6901 33.7799 40.4892 33.1745 42.358C32.1373 44.2819 30.7088 44.705 28.8888 43.6279Z" fill="white"/>
<path fill-rule="evenodd" clip-rule="evenodd" d="M19.0477 33.4691C19.3346 33.6942 19.4405 34.0117 19.3651 34.4215C19.7884 34.4215 20.2117 34.4215 20.635 34.4215C20.517 36.8396 21.5752 38.4269 23.8096 39.1834C22.9564 41.4342 22.6918 43.7621 23.0159 46.1675C23.2805 46.432 23.545 46.6967 23.8096 46.9612C22.8046 46.3831 21.6935 45.9069 20.4762 45.5326C19.5682 45.7501 18.8804 46.2793 18.4127 47.1199C16.6581 45.6104 16.0761 43.7056 16.6667 41.4056C16.7725 41.2999 16.8784 41.1939 16.9842 41.0882C17.3728 42.032 18.0077 42.2437 18.8889 41.7231C19.1553 40.885 18.9965 40.1444 18.4127 39.5009C19.0127 38.5126 19.436 37.4545 19.6826 36.3263C19.5791 35.5399 19.2617 34.852 18.7302 34.2628C18.8074 33.9764 18.9132 33.712 19.0477 33.4691Z" fill="white"/>
<path fill-rule="evenodd" clip-rule="evenodd" d="M28.8889 43.6279C28.7882 42.6527 28.894 41.7003 29.2064 40.7708C30.8308 40.1197 31.413 40.6486 30.9524 42.3581C30.3749 42.994 29.6872 43.4171 28.8889 43.6279Z" fill="#333333"/>
<path fill-rule="evenodd" clip-rule="evenodd" d="M23.8096 30.2946C27.1064 29.7927 29.8577 30.7451 32.0636 33.1517C30.8306 33.4505 29.6666 33.9267 28.5715 34.5803C27.4214 36.0536 25.9399 36.953 24.1271 37.2787C22.1928 36.8009 21.3462 35.5311 21.5874 33.4692C20.9194 33.5641 20.2845 33.4584 19.6826 33.1517C20.9015 31.9613 22.2772 31.0089 23.8096 30.2946Z" fill="white"/>
<path fill-rule="evenodd" clip-rule="evenodd" d="M13.6507 23.3104C15.6035 23.3342 17.085 24.1809 18.0952 25.8501C17.2825 26.9247 16.5418 28.0358 15.873 29.1834C15.5126 29.4212 15.1952 29.3685 14.9206 29.0247C15.5566 27.319 15.0275 26.6841 13.3333 27.1199C13.0384 27.4974 12.9326 27.9206 13.0158 28.3898C9.69645 29.2019 9.69645 29.9425 13.0158 30.612C12.9193 31.4796 13.2897 32.0085 14.1269 32.1993C15.066 31.7523 15.3306 31.0644 14.9206 30.1358C15.1322 30.0828 15.3438 30.0301 15.5555 29.9771C16.3952 31.0104 17.2417 32.0685 18.0952 33.1517C17.0829 35.1276 15.4956 35.9212 13.3333 35.5326C11.7595 33.4292 10.0664 31.4184 8.25391 29.5009C10.1376 27.4622 11.9366 25.3987 13.6507 23.3104Z" fill="white"/>
<path fill-rule="evenodd" clip-rule="evenodd" d="M32.381 27.12C33.2851 28.0714 34.3432 28.8651 35.5556 29.5009C34.3749 30.0438 33.3696 30.8375 32.5397 31.8819C31.4042 30.9698 30.1871 30.1762 28.8889 29.5009C30.184 28.8568 31.348 28.0632 32.381 27.12Z" fill="white"/>
<path fill-rule="evenodd" clip-rule="evenodd" d="M18.4126 26.485C19.95 27.7307 21.6431 28.7361 23.492 29.5009C21.7006 30.185 20.1133 31.1901 18.7301 32.5167C16.3217 30.6317 16.2159 28.6212 18.4126 26.485Z" fill="white"/>
<path fill-rule="evenodd" clip-rule="evenodd" d="M22.5397 12.8342C22.6455 12.8342 22.7513 12.8342 22.8572 12.8342C22.6915 15.2374 23.0089 17.5653 23.8095 19.8183C21.5752 20.5749 20.517 22.1622 20.6349 24.5802C20.0488 24.492 19.6255 24.7037 19.3651 25.2152C20.0771 25.5244 20.8178 25.6304 21.5873 25.5326C21.8185 21.6076 23.6174 20.7079 26.9841 22.8342C28.2317 24.5698 29.9248 25.5752 32.0635 25.8501C29.5753 28.6958 26.5066 29.4895 22.8572 28.231C21.3969 27.5279 20.0742 26.6285 18.8889 25.5326C18.6772 25.1095 18.6772 24.686 18.8889 24.2628C19.3678 23.7812 19.6323 23.199 19.6825 22.5168C19.4304 21.4837 19.0071 20.5314 18.4127 19.6596C19.7721 18.5536 19.6133 17.7599 17.9365 17.2787C17.5032 17.3879 17.1328 17.5996 16.8254 17.9136C16.0725 15.5828 16.5487 13.5723 18.254 11.8818C19.3847 13.578 20.8133 13.8955 22.5397 12.8342Z" fill="white"/>
<path fill-rule="evenodd" clip-rule="evenodd" d="M24.127 12.1993C24.127 12.0936 24.127 11.9875 24.127 11.8818C25.9207 11.3748 27.2434 12.0098 28.0953 13.7866C28.1564 14.9802 27.8919 15.0329 27.3016 13.9453C25.3777 13.6069 24.9544 14.2418 26.0318 15.8501C26.6667 16.0618 27.3016 16.0618 27.9365 15.8501C31.2102 14.1006 33.1149 15.0529 33.6508 18.7072C33.3638 19.8323 33.0464 20.9434 32.6984 22.0406C32.6826 23.0164 33.1057 23.7044 33.9683 24.1041C33.8102 24.4717 33.5457 24.7361 33.1746 24.8977C31.5968 24.8329 30.2211 24.3037 29.0476 23.3104C29.4724 22.3345 29.5782 21.2761 29.3651 20.1358C28.0731 18.9866 26.6445 18.0342 25.0794 17.2787C24.2322 15.698 23.9148 14.005 24.127 12.1993Z" fill="white"/>
<path fill-rule="evenodd" clip-rule="evenodd" d="M29.2063 15.3739C29.6877 15.8183 30.2168 16.2415 30.7937 16.6437C31.2168 17.2787 31.2168 17.9136 30.7937 18.5485C30.113 19.0098 29.531 18.9041 29.0476 18.231C28.814 17.2495 28.867 16.2971 29.2063 15.3739Z" fill="#333333"/>
<path fill-rule="evenodd" clip-rule="evenodd" d="M24.1271 11.8818C24.1271 11.9876 24.1271 12.0936 24.1271 12.1993C23.7763 12.5485 23.3531 12.7602 22.8573 12.8342C22.7514 12.8342 22.6456 12.8342 22.5398 12.8342C22.9079 12.2787 23.4369 11.9612 24.1271 11.8818Z" fill="#333333"/>
<path fill-rule="evenodd" clip-rule="evenodd" d="M167.302 0.77073C166.878 0.982476 166.455 1.1939 166.032 1.40565C164.644 1.5774 164.009 2.37105 164.127 3.7866C164.524 7.36248 166.429 8.63232 169.841 7.59613C170.242 6.80025 170.771 6.11232 171.429 5.53264C172.198 5.9174 172.515 6.55232 172.381 7.4374C173.647 7.59518 174.705 8.17708 175.555 9.18343C183.042 9.20629 186.004 12.8571 184.444 20.1358C185.573 20.5682 186.578 21.2031 187.46 22.0406C188.532 23.8136 189.643 25.5596 190.794 27.2787C191.595 27.078 192.389 27.1311 193.175 27.4374C192.963 28.813 192.963 30.1888 193.175 31.5644C192.744 31.8438 192.268 31.9498 191.746 31.8818C191.54 31.7853 191.328 31.6796 191.111 31.5644C189.9 32.7111 189.001 34.0869 188.413 35.6914C187.504 37.4485 186.075 38.4536 184.127 38.7072C185.017 40.3438 185.282 42.0898 184.921 43.9453C183.483 48.3926 180.467 50.2974 175.873 49.6596C174.195 50.8307 172.66 52.1006 171.27 53.4692C171.025 53.4231 170.813 53.3174 170.635 53.1517C170.548 52.6434 170.389 52.1672 170.159 51.7231C165.791 50.4939 163.833 52.1339 164.286 56.6438C165.523 58.1009 166.846 58.2066 168.254 56.9612C167.639 57.126 167.057 56.9145 166.508 56.3263C166.246 55.6276 166.405 55.0457 166.984 54.5803C169.277 54.6945 169.753 55.6999 168.413 57.5961C165.721 59.1615 163.71 58.5266 162.381 55.6914C162.01 53.1507 162.803 51.0342 164.762 49.3422C163.508 47.4961 163.508 45.6971 164.762 43.9453C165.013 45.286 165.648 46.3971 166.667 47.2787C168.069 47.3447 169.445 47.5561 170.794 47.9136C171.613 48.7993 171.613 49.699 170.794 50.612C172.272 50.9361 173.542 50.5126 174.603 49.3422C172.941 48.1418 171.566 46.6606 170.476 44.8977C166.045 45.4425 163.929 43.432 164.127 38.866C161.886 38.9088 160.193 37.9564 159.048 36.0088C158.435 34.5533 157.694 33.1774 156.825 31.8818C155.659 32.8345 154.813 32.6228 154.286 31.2469C154.808 30.1723 155.655 29.8018 156.825 30.1358C158.1 31.3577 159.105 32.7863 159.841 34.4215C160.308 34.946 160.89 35.2634 161.587 35.3739C163.43 34.9025 165.07 34.0558 166.508 32.8342C166.335 32.0111 165.858 31.3231 165.079 30.7707C164.154 30.0269 163.413 30.1326 162.857 31.0882C163.09 31.6488 163.196 32.2307 163.175 32.8342C161.861 32.6841 161.226 31.9431 161.27 30.612C160.195 30.8374 159.454 30.4672 159.048 29.5009C159.454 28.5345 160.195 28.1644 161.27 28.3898C161.254 26.8714 161.994 26.1834 163.492 26.3263C162.869 27.0142 162.762 27.7552 163.175 28.5485C164.755 28.6168 165.918 27.9288 166.667 26.485C165.569 25.4574 164.299 24.6637 162.857 24.1041C161.558 23.7145 160.447 23.979 159.524 24.8977C158.956 26.192 158.269 27.4088 157.46 28.5485C156.657 28.9999 155.81 29.1057 154.921 28.866C154.507 28.6107 154.295 28.2403 154.286 27.7549C154.807 26.3545 155.653 26.1431 156.825 27.1199C157.911 25.4793 158.916 23.786 159.841 22.0406C160.431 21.1834 161.224 20.6545 162.222 20.4533C162.857 20.4533 163.492 20.4533 164.127 20.4533C164.127 19.8184 164.127 19.1834 164.127 18.5485C164.815 14.9063 167.037 13.319 170.794 13.7866C171.815 12.0774 173.19 10.7545 174.921 9.81835C174.074 9.28914 173.228 8.76025 172.381 8.23105C171.674 7.97073 171.039 8.07645 170.476 8.54851C171.795 9.78502 171.584 10.7374 169.841 11.4057C166.946 10.998 165.253 12.2149 164.762 15.0564C163.492 13.2574 163.492 11.4587 164.762 9.65962C164.11 8.9047 163.475 8.16406 162.857 7.4374C162.516 6.51899 162.305 5.5666 162.222 4.58025C162.563 1.48597 164.256 0.216127 167.302 0.77073Z" fill="#333333"/>
<path fill-rule="evenodd" clip-rule="evenodd" d="M175.873 43.9453C176.133 44.8358 176.292 45.7882 176.349 46.8025C176.562 46.5637 176.827 46.4577 177.143 46.485C176.966 46.8945 176.648 47.159 176.19 47.2786C175.384 47.5313 174.644 47.4783 173.968 47.1199C174.603 47.1199 175.238 47.1199 175.873 47.1199C175.873 46.0618 175.873 45.0034 175.873 43.9453Z" fill="white"/>
<path fill-rule="evenodd" clip-rule="evenodd" d="M177.143 46.485C177.763 44.1161 177.446 41.8939 176.19 39.8184C178.47 38.752 179.529 36.9533 179.365 34.4215C180.026 34.4304 180.608 34.2187 181.111 33.7866C181.331 33.9533 181.489 34.165 181.587 34.4215C180.321 36.1565 180.426 37.8498 181.905 39.5009C180.704 40.28 180.651 41.1266 181.746 42.0406C182.348 41.9149 182.824 41.5974 183.175 41.0882C183.997 42.9393 183.838 44.7384 182.698 46.485C181.991 47.3282 181.409 47.2225 180.952 46.1676C179.579 45.28 178.309 45.3857 177.143 46.485Z" fill="white"/>
<path fill-rule="evenodd" clip-rule="evenodd" d="M175.873 43.9453C175.873 45.0034 175.873 46.0618 175.873 47.1199C175.238 47.1199 174.603 47.1199 173.968 47.1199C173.053 46.3132 172.101 45.5196 171.111 44.7389C171.428 44.5802 171.746 44.4215 172.063 44.2627C172.738 45.6091 173.637 45.8208 174.762 44.8977C174.94 44.0094 174.569 43.4275 173.651 43.1516C172.994 42.9335 172.359 42.9865 171.746 43.3104C171.505 42.4669 171.293 41.6205 171.111 40.7707C170.399 40.4615 169.658 40.3554 168.889 40.4532C168.838 40.9926 168.891 41.5218 169.048 42.0405C171.175 44.0564 170.805 44.6386 167.936 43.7865C166.349 41.5954 166.244 39.3202 167.619 36.9611C167.442 36.077 167.018 35.3364 166.349 34.7389C166.455 34.4215 166.667 34.2097 166.984 34.104C167.94 34.3481 168.892 34.6129 169.841 34.8977C171.263 35.5135 171.475 36.4132 170.476 37.5961C170.967 39.5938 172.237 40.8107 174.286 41.2469C175.268 41.891 175.797 42.7904 175.873 43.9453Z" fill="white"/>
<path fill-rule="evenodd" clip-rule="evenodd" d="M184.762 23.3104C185.405 23.259 186.04 23.312 186.667 23.4691C188.36 25.4796 190.053 27.4904 191.746 29.5009C190.006 31.3961 188.418 33.4066 186.984 35.5326C184.482 36.1117 182.948 35.2123 182.381 32.8342C182.914 31.4424 183.813 30.3843 185.079 29.6596C185.185 29.7653 185.291 29.8713 185.397 29.977C184.677 32.0637 185.26 32.5929 187.143 31.5643C187.296 31.2634 187.349 30.9459 187.302 30.612C189.393 30.7116 189.816 30.024 188.571 28.5485C188.161 28.3929 187.737 28.3399 187.302 28.3897C187.302 27.9666 187.302 27.5431 187.302 27.1199C185.294 26.3761 184.659 27.011 185.397 29.0247C184.653 29.4136 184.071 29.2021 183.651 28.3897C183.259 27.5018 182.783 26.6555 182.222 25.8501C182.806 24.717 183.653 23.8704 184.762 23.3104Z" fill="white"/>
<path fill-rule="evenodd" clip-rule="evenodd" d="M171.746 30.2946C175.148 29.7257 178.005 30.6781 180.317 33.1517C179.733 33.3835 179.151 33.5952 178.571 33.7866C178.584 36.5266 177.262 37.6377 174.603 37.12C173.381 36.2435 172.217 35.2911 171.111 34.2628C170.085 33.7974 169.027 33.4269 167.937 33.1517C169.033 31.9473 170.303 30.9949 171.746 30.2946Z" fill="white"/>
<path fill-rule="evenodd" clip-rule="evenodd" d="M167.301 27.12C168.633 28.1565 170.114 28.9502 171.746 29.5009C170.157 30.1644 168.676 30.9051 167.301 31.7232C166.531 30.7397 165.578 29.999 164.444 29.5009C165.785 29.1511 166.738 28.3575 167.301 27.12Z" fill="white"/>
<path fill-rule="evenodd" clip-rule="evenodd" d="M181.27 26.485C182.397 27.1453 183.138 28.1507 183.492 29.5009C183.133 30.7002 182.498 31.7056 181.587 32.5167C180.041 31.2672 178.348 30.2621 176.508 29.5009C178.32 28.8088 179.907 27.8037 181.27 26.485Z" fill="white"/>
<path fill-rule="evenodd" clip-rule="evenodd" d="M174.921 21.7232C177.426 21.5305 178.643 22.6943 178.571 25.2152C180.615 25.5381 180.774 26.2257 179.048 27.2787C174.993 29.5378 171.289 29.1146 167.937 26.0089C168.845 25.6133 169.797 25.2959 170.794 25.0565C172.137 23.8682 173.513 22.7571 174.921 21.7232Z" fill="white"/>
<path fill-rule="evenodd" clip-rule="evenodd" d="M173.968 11.8818C174.603 11.8818 175.238 11.8818 175.873 11.8818C175.873 13.046 175.873 14.2098 175.873 15.3739C175.687 16.1168 175.37 16.8047 174.921 17.4374C173.466 18.0314 172.144 18.825 170.953 19.8183C170.296 20.8691 170.349 21.8742 171.111 22.8342C170.92 23.3437 170.603 23.7669 170.159 24.1041C169.054 24.2914 168.049 24.6618 167.143 25.2152C166.931 25.0034 166.72 24.792 166.508 24.5802C166.836 23.8101 167.206 23.0164 167.619 22.1993C166.675 20.3329 166.463 18.3752 166.984 16.3263C167.882 15.1609 169.046 14.7904 170.476 15.2152C169.934 16.0104 169.406 16.8041 168.889 17.5961C169.093 18.6993 169.728 19.0695 170.794 18.7072C171.278 17.7841 171.595 16.779 171.746 15.6914C172.941 16.2428 173.946 16.031 174.762 15.0564C174.979 14.6488 174.926 14.2783 174.603 13.9453C173.526 13.5745 172.68 13.8393 172.064 14.739C171.958 13.3777 172.593 12.4253 173.968 11.8818Z" fill="white"/>
<path fill-rule="evenodd" clip-rule="evenodd" d="M177.46 13.4691C177.46 13.2574 177.46 13.046 177.46 12.8342C179.236 13.8787 180.718 13.5612 181.905 11.8818C183.787 13.6076 184.21 15.6183 183.175 17.9136C182.637 17.3488 182.002 17.1901 181.27 17.4374C180.767 18.3342 180.978 19.0222 181.905 19.5009C180.377 21.1298 180.271 22.8228 181.587 24.5802C181.489 24.8368 181.331 25.0485 181.111 25.2152C180.608 24.7831 180.026 24.5714 179.365 24.5802C179.598 22.0828 178.539 20.3898 176.19 19.5009C177.066 17.5869 177.489 15.5764 177.46 13.4691Z" fill="white"/>
<path fill-rule="evenodd" clip-rule="evenodd" d="M173.968 11.8818C175.36 11.2961 176.524 11.6135 177.46 12.8342C177.46 13.0459 177.46 13.2574 177.46 13.4691C177.165 13.0132 176.795 12.5901 176.349 12.1993C176.292 13.3183 176.134 14.3767 175.873 15.3739C175.873 14.2097 175.873 13.0459 175.873 11.8818C175.238 11.8818 174.603 11.8818 173.968 11.8818Z" fill="#333333"/>
<path fill-rule="evenodd" clip-rule="evenodd" d="M38.4126 56.0089C79.577 55.9032 120.741 56.0089 161.905 56.3263C141.323 56.4321 120.741 56.5381 100.159 56.6438C79.4697 56.6438 58.8878 56.4321 38.4126 56.0089Z" fill="#333333"/>
</svg>
