<svg width="201" height="215" viewBox="0 0 201 215" fill="none" xmlns="http://www.w3.org/2000/svg">
<path d="M200.5 114.063C200.466 114.258 200.403 114.458 200.397 114.652C200.329 116.887 199.923 119.058 199.323 121.202C199.22 121.579 199.025 121.733 198.677 121.825C195.551 122.682 192.579 123.922 189.716 125.425C187.212 126.74 184.852 128.265 182.772 130.197C181.56 131.323 180.497 132.569 179.646 133.992C178.685 135.598 178.297 137.358 178.04 139.193C177.371 143.971 176.062 148.554 173.599 152.755C171.856 155.721 169.638 158.253 166.729 160.139C166.181 160.493 165.604 160.824 165.015 161.104C164.661 161.27 164.546 161.487 164.535 161.859C164.501 163.528 164.306 165.179 163.923 166.808C162.546 172.632 159.146 176.912 153.962 179.81C151.19 181.359 148.213 182.33 145.098 182.908C144.275 183.062 143.44 183.176 142.577 183.313C142.492 183.696 142.406 184.073 142.32 184.451C141.469 188 139.76 191.114 137.44 193.898C133.308 198.853 128.141 202.19 121.843 203.682C120.431 204.019 118.968 204.168 117.528 204.368C113.79 204.894 110.213 205.905 106.932 207.825C105.686 208.557 104.515 209.391 103.503 210.432C103.149 210.797 102.817 211.197 102.52 211.615C101.989 212.346 101.48 213.095 100.971 213.843C100.857 214.009 100.783 214.198 100.691 214.375H100.446C100.446 214.375 100.457 214.329 100.446 214.312C98.9598 211.872 97.2624 209.649 94.7363 208.14C91.9702 206.482 89.0098 205.374 85.855 204.768C84.2662 204.465 82.6489 204.293 81.0429 204.036C76.4423 203.299 72.3217 201.447 68.624 198.636C64.8292 195.749 61.8402 192.189 59.9142 187.794C59.3255 186.451 58.8969 185.062 58.6169 183.622C58.5997 183.525 58.5711 183.428 58.5426 183.313C57.6967 183.176 56.8623 183.062 56.0394 182.908C52.616 182.267 49.3641 181.17 46.3808 179.347C41.0029 176.061 37.8196 171.3 36.8823 165.065C36.7166 163.973 36.6709 162.859 36.5909 161.75C36.5737 161.482 36.5109 161.299 36.248 161.167C32.3274 159.241 29.5099 156.184 27.361 152.452C25.5893 149.377 24.4463 146.068 23.709 142.61C23.3947 141.124 23.1661 139.621 22.9432 138.118C22.6232 135.987 21.7373 134.118 20.4286 132.438C18.8455 130.403 16.8852 128.78 14.742 127.38C10.9644 124.911 6.88948 123.093 2.55172 121.853C2.09451 121.722 1.88877 121.51 1.76304 121.059C1.22582 119.11 0.888627 117.132 0.722889 115.121C0.694313 114.761 0.580011 114.412 0.5 114.058V109.863C0.580011 109.486 0.694313 109.114 0.728604 108.737C1.11152 104.485 2.23739 100.462 4.31197 96.7181C6.82662 92.1803 10.41 88.6941 14.8335 86.0309C15.0792 85.8823 15.3193 85.7337 15.5764 85.5737C15.5136 84.8421 15.4336 84.1278 15.3993 83.4134C14.9021 73.9549 18.3768 66.4109 26.2294 60.993C29.1327 58.9927 32.3331 57.6154 35.6822 56.5638C35.7622 56.541 35.8365 56.5009 35.9165 56.4895C36.248 56.4381 36.368 56.2609 36.4366 55.9237C36.688 54.6778 36.9452 53.4262 37.2767 52.1975C38.7512 46.7396 41.0658 41.6874 44.6149 37.2525C49.387 31.2802 55.5536 27.5825 63.0404 26.0852C64.1262 25.868 65.2292 25.7423 66.3265 25.5765C66.5666 25.5422 66.8123 25.5022 67.0581 25.4622C68.6297 22.0217 70.9844 19.1928 73.6533 16.5981C75.6479 14.6607 77.8082 12.9176 80.0714 11.3002C85.0435 7.75113 90.3871 4.85928 95.9193 2.31035C97.3195 1.66454 98.7369 1.06446 100.143 0.435796C100.394 0.321494 100.617 0.281488 100.903 0.401505C107.67 3.28192 114.219 6.55667 120.283 10.7573C122.889 12.5632 125.369 14.5292 127.632 16.7581C130.639 19.7071 132.113 21.7074 134.079 25.4622C134.925 25.5822 135.799 25.6908 136.668 25.828C146.001 27.3311 153.253 32.0517 158.443 39.9386C161.443 44.4935 163.34 49.4999 164.472 54.8207C164.546 55.1808 164.655 55.5408 164.683 55.9066C164.706 56.2952 164.918 56.4038 165.238 56.5181C166.844 57.0953 168.461 57.6325 170.021 58.3126C173.445 59.8043 176.531 61.8217 179.131 64.5307C182.595 68.1369 184.686 72.4346 185.464 77.3725C185.858 79.8643 185.909 82.3618 185.589 84.8707C185.566 85.0364 185.555 85.1965 185.549 85.3622C185.549 85.4251 185.555 85.4822 185.566 85.5965C185.738 85.6994 185.926 85.8137 186.115 85.928C190.813 88.7227 194.568 92.4318 197.122 97.3011C198.808 100.524 199.826 103.953 200.26 107.56C200.329 108.131 200.34 108.708 200.391 109.28C200.409 109.48 200.46 109.674 200.5 109.869V114.063ZM129.833 30.5144C129.776 30.2058 129.707 29.9486 129.678 29.6857C129.53 28.3941 129.05 27.2282 128.393 26.1195C127.467 24.5535 126.352 23.1362 125.118 21.8046C122.855 19.3642 120.3 17.2668 117.585 15.3579C112.385 11.7003 106.778 8.78556 100.983 6.20805C100.669 6.07089 100.411 6.08232 100.109 6.21948C95.5936 8.22548 91.1929 10.4429 86.9981 13.0605C83.3061 15.3636 79.8085 17.9183 76.7452 21.0273C75.0649 22.7304 73.5447 24.565 72.4131 26.691C71.9845 27.4911 71.6359 28.3198 71.5273 29.2342C71.4759 29.6571 71.3673 30.0686 71.2815 30.5087C71.0415 30.5258 70.8358 30.543 70.6357 30.5544C68.3954 30.6515 66.1665 30.8058 63.9605 31.2688C58.4111 32.4289 53.6962 35.0407 49.8956 39.2642C47.1352 42.3332 45.1521 45.8651 43.7062 49.7057C42.5574 52.7518 41.723 55.8837 41.4144 59.1413C41.3744 59.5871 41.323 60.0329 41.2773 60.5015C41.0772 60.5587 40.9058 60.6101 40.7286 60.6615C39.677 60.9473 38.6197 61.2045 37.5796 61.5245C34.2934 62.5247 31.1787 63.8849 28.4126 65.9594C23.4461 69.68 20.9315 74.6807 20.7143 80.8587C20.6343 83.1333 20.8629 85.3736 21.5602 87.5511C21.6459 87.814 21.6859 88.094 21.7487 88.3684C21.5087 88.4884 21.3201 88.5741 21.143 88.6713C19.6342 89.5057 18.0625 90.2486 16.6223 91.1916C11.3587 94.6378 8.02107 99.4557 6.6323 105.611C5.94078 108.686 5.79218 111.795 6.07794 114.926C6.15795 115.801 6.30654 116.67 6.42085 117.527C6.70089 117.63 6.91234 117.71 7.1238 117.784C11.4273 119.367 15.5193 121.356 19.2341 124.065C21.3544 125.614 23.2747 127.374 24.8578 129.477C26.6466 131.849 27.8582 134.472 28.2468 137.444C28.504 139.444 28.8641 141.422 29.3956 143.37C30.1728 146.182 31.253 148.857 32.9046 151.28C34.2305 153.223 35.8308 154.886 37.8825 156.075C38.6883 156.544 39.5284 156.915 40.4543 157.07C40.9915 157.161 41.523 157.292 42.0888 157.412C42.0659 157.921 42.0545 158.373 42.0202 158.818C41.8831 160.71 41.8888 162.596 42.1974 164.476C42.8318 168.334 44.6149 171.517 47.7525 173.895C49.6442 175.329 51.7588 176.312 54.0162 176.998C56.6452 177.804 59.337 178.233 62.0917 178.198C62.5946 178.193 63.1032 178.147 63.669 178.25C63.669 178.844 63.6805 179.398 63.669 179.947C63.6004 182.37 64.2234 184.628 65.3264 186.76C67.3267 190.623 70.27 193.606 73.9562 195.869C76.728 197.567 79.7227 198.641 82.9689 198.99C85.1578 199.224 87.3238 199.601 89.4441 200.196C93.4676 201.316 97.1938 203.03 100.406 205.762C100.451 205.802 100.509 205.814 100.543 205.831C101.423 205.191 102.263 204.522 103.155 203.939C106.972 201.453 111.202 200.059 115.671 199.327C116.945 199.121 118.248 199.053 119.517 198.79C126.775 197.292 132.199 193.269 135.765 186.782C136.919 184.679 137.508 182.399 137.445 179.976C137.428 179.404 137.445 178.833 137.445 178.187C137.811 178.187 138.091 178.181 138.377 178.187C140.314 178.233 142.24 178.095 144.143 177.724C146.972 177.175 149.664 176.272 152.122 174.741C155.471 172.655 157.665 169.717 158.631 165.882C159.203 163.608 159.271 161.287 159.111 158.961C159.077 158.453 159.06 157.944 159.037 157.441C159.14 157.395 159.191 157.361 159.248 157.35C159.426 157.304 159.608 157.258 159.791 157.235C161.666 157.001 163.283 156.195 164.741 155.041C165.078 154.772 165.409 154.492 165.724 154.201C167.181 152.84 168.335 151.252 169.29 149.503C171.182 146.028 172.256 142.273 172.719 138.376C173.193 134.363 174.811 130.934 177.497 127.968C178.674 126.671 179.971 125.499 181.366 124.442C185.018 121.676 189.064 119.647 193.328 118.018C193.768 117.853 194.213 117.693 194.636 117.533C194.665 117.441 194.693 117.39 194.705 117.327C194.739 117.167 194.773 117.007 194.796 116.841C195.294 113.481 195.316 110.126 194.716 106.777C193.562 100.324 190.327 95.2093 184.938 91.4602C183.36 90.3629 181.663 89.4942 179.949 88.6484C179.754 88.5512 179.56 88.4427 179.36 88.3341C179.428 88.0597 179.474 87.8369 179.537 87.6254C180.429 84.8136 180.6 81.9446 180.274 79.0299C179.948 76.0809 179.005 73.3434 177.382 70.8516C175.605 68.1255 173.21 66.0623 170.416 64.4335C167.57 62.7761 164.495 61.6903 161.317 60.8844C160.826 60.7587 160.334 60.6273 159.831 60.4958C159.797 60.0786 159.763 59.7128 159.728 59.3471C159.694 58.9813 159.671 58.6098 159.62 58.244C158.945 53.6491 157.557 49.2828 155.356 45.185C153.35 41.4588 150.75 38.2355 147.327 35.7151C142.932 32.4861 137.937 30.9944 132.547 30.6573C131.667 30.6001 130.787 30.5658 129.833 30.5144Z" fill="#333333"/>
<path d="M25.818 90.1C25.4922 88.9227 25.2122 87.8025 24.8693 86.7052C24.1549 84.4306 23.9834 82.1103 24.2006 79.7556C24.4635 76.9381 25.3608 74.3434 27.041 72.0403C28.3441 70.2571 29.9843 68.8398 31.8531 67.6739C34.4821 66.0394 37.3454 64.9935 40.3229 64.222C41.5345 63.9077 42.7518 63.6048 43.9634 63.2904C44.4949 63.1533 44.4835 63.1476 44.535 62.5932C44.7293 60.53 44.8321 58.4497 45.2779 56.4152C46.238 52.0374 47.804 47.9111 50.3358 44.1848C54.0849 38.6698 59.2513 35.3836 65.8409 34.3263C67.7554 34.0177 69.6871 33.972 71.6131 33.8634C72.4532 33.8177 73.2933 33.7834 74.1735 33.7434C74.2878 33.149 74.3964 32.5889 74.4992 32.0288C74.6421 31.2401 74.7393 30.44 74.9221 29.6628C75.0364 29.1713 75.2193 28.6798 75.4537 28.2283C76.128 26.9024 77.0425 25.7308 78.0197 24.6163C80.2886 22.0331 82.929 19.8842 85.7351 17.924C90.2672 14.7578 95.1308 12.1803 100.149 9.88852C100.412 9.7685 100.634 9.73993 100.909 9.86566C106.824 12.5861 112.539 15.6551 117.711 19.6499C119.894 21.3359 121.946 23.1761 123.689 25.3307C124.192 25.9537 124.649 26.6109 125.106 27.2739C125.781 28.2511 126.198 29.3256 126.352 30.52C126.49 31.5773 126.718 32.6175 126.918 33.7319C127.507 33.7662 128.073 33.8062 128.638 33.8405C130.199 33.9262 131.765 33.9662 133.319 34.0977C140.732 34.7435 146.618 38.0468 150.813 44.2477C153.219 47.8025 154.739 51.7231 155.711 55.8837C156.117 57.6096 156.305 59.3642 156.442 61.1301C156.494 61.7817 156.557 62.4389 156.62 63.1418C156.877 63.2104 157.128 63.279 157.38 63.3533C159.597 63.9705 161.837 64.5135 164.021 65.2221C166.752 66.1137 169.284 67.4339 171.502 69.3027C174.542 71.8688 176.302 75.1378 176.822 79.0813C177.154 81.5788 177.028 84.042 176.308 86.4652C175.959 87.6425 175.645 88.8369 175.302 90.0657C175.491 90.1686 175.657 90.2771 175.839 90.3629C177.325 91.1058 178.828 91.8259 180.309 92.5975C183.343 94.1748 185.967 96.2551 187.967 99.0613C189.767 101.587 190.842 104.405 191.367 107.445C191.773 109.788 191.836 112.143 191.642 114.515C191.607 114.961 191.436 115.149 191.047 115.304C187.693 116.629 184.481 118.241 181.469 120.23C178.497 122.19 175.811 124.476 173.633 127.311C171.582 129.98 170.17 132.935 169.587 136.267C169.313 137.827 169.113 139.398 168.787 140.942C168.135 143.976 167.095 146.868 165.335 149.457C164.484 150.709 163.455 151.783 162.249 152.703C161.174 153.52 159.929 153.801 158.648 154.041C157.603 154.235 156.562 154.463 155.511 154.675C155.511 155.104 155.494 155.492 155.511 155.875C155.585 157.435 155.688 158.996 155.745 160.556C155.802 162.059 155.682 163.556 155.322 165.025C154.631 167.848 153.07 170.066 150.653 171.672C148.693 172.975 146.521 173.763 144.235 174.272C142.583 174.638 140.914 174.838 139.223 174.809C137.765 174.786 136.302 174.809 134.845 174.809H134.153C134.136 175.032 134.113 175.192 134.108 175.352C134.073 176.895 133.999 178.438 134.028 179.976C134.062 181.833 133.645 183.582 132.765 185.188C129.599 190.949 124.786 194.463 118.288 195.595C116.465 195.909 114.625 196.098 112.813 196.475C108.487 197.378 104.435 198.984 100.766 201.482C100.714 201.516 100.657 201.533 100.572 201.573C100.497 201.533 100.4 201.499 100.32 201.442C96.8567 199.093 93.039 197.578 88.987 196.607C87.0267 196.138 85.0322 195.852 83.0319 195.612C80.3172 195.286 77.814 194.321 75.5108 192.858C72.4132 190.886 69.9272 188.337 68.2869 185.022C67.5097 183.456 67.0867 181.805 67.1096 180.033C67.1325 178.33 67.0582 176.627 67.0239 174.844C66.7781 174.832 66.561 174.815 66.3495 174.809C64.3149 174.798 62.2746 174.878 60.2458 174.758C57.1768 174.575 54.2449 173.803 51.5302 172.317C47.9869 170.38 45.998 167.397 45.518 163.39C45.3236 161.767 45.3865 160.15 45.4779 158.527C45.5408 157.441 45.6037 156.349 45.6608 155.264C45.6723 155.081 45.6608 154.904 45.6608 154.692C44.4549 154.441 43.3005 154.126 42.1232 153.978C39.9572 153.703 38.3684 152.509 36.9796 150.966C35.5165 149.343 34.4935 147.445 33.6934 145.428C32.7047 142.93 32.0646 140.336 31.756 137.672C31.2302 133.112 29.3042 129.231 26.2809 125.842C23.8063 123.07 20.863 120.876 17.6797 118.996C15.2508 117.561 12.7133 116.338 10.09 115.315C9.68998 115.161 9.53567 114.966 9.50138 114.526C9.26134 111.657 9.40422 108.817 10.0729 106.011C11.4274 100.33 14.7307 96.1065 19.76 93.2204C21.4688 92.2431 23.2633 91.4145 25.0236 90.5172C25.2751 90.3857 25.5322 90.26 25.8409 90.1114L25.818 90.1ZM68.5212 173.3C68.5441 173.54 68.567 173.701 68.567 173.861C68.5955 175.855 68.6527 177.85 68.6355 179.844C68.6184 181.622 69.0642 183.256 69.8986 184.805C70.9216 186.714 72.2818 188.348 73.9106 189.766C76.5452 192.052 79.5514 193.572 83.0319 194.086C84.3349 194.281 85.6437 194.412 86.9353 194.641C91.6331 195.469 96.0795 196.995 100.149 199.521C100.457 199.716 100.674 199.704 100.977 199.521C103.766 197.778 106.772 196.521 109.933 195.618C112.55 194.869 115.231 194.515 117.917 194.098C123.941 193.166 128.375 189.874 131.342 184.582C132.147 183.142 132.502 181.57 132.49 179.907C132.479 177.89 132.53 175.878 132.559 173.861C132.559 173.689 132.593 173.512 132.61 173.312H133.348C135.302 173.312 137.257 173.289 139.206 173.318C140.989 173.34 142.732 173.1 144.452 172.672C146.544 172.152 148.521 171.38 150.27 170.077C151.905 168.86 153.03 167.282 153.631 165.328C154.145 163.636 154.288 161.899 154.202 160.144C154.116 158.338 153.996 156.532 153.899 154.726C153.876 154.321 153.899 153.915 153.899 153.48C154.128 153.429 154.339 153.372 154.562 153.326C156.151 153 157.74 152.652 159.334 152.366C160.043 152.235 160.672 151.96 161.237 151.543C161.666 151.229 162.083 150.886 162.466 150.52C163.832 149.2 164.798 147.605 165.575 145.891C166.844 143.096 167.524 140.136 167.907 137.107C168.267 134.272 169.153 131.626 170.57 129.151C172.382 125.979 174.834 123.373 177.674 121.11C181.257 118.258 185.235 116.098 189.441 114.326C189.664 114.229 189.887 114.132 190.11 114.035C190.127 113.858 190.144 113.715 190.15 113.572C190.264 111.697 190.19 109.834 189.887 107.977C189.356 104.713 188.167 101.724 186.075 99.1356C184.235 96.8552 181.937 95.1521 179.337 93.8377C177.708 93.009 176.062 92.2088 174.428 91.3916C174.119 91.2373 173.811 91.083 173.479 90.9172C173.839 89.6256 174.188 88.3797 174.531 87.1338C174.771 86.2594 175.034 85.3965 175.205 84.5106C175.519 82.8875 175.537 81.2416 175.342 79.5956C174.971 76.4523 173.765 73.7034 171.525 71.4287C169.644 69.5199 167.375 68.2169 164.929 67.1939C162.838 66.3194 160.649 65.7651 158.454 65.2107C157.38 64.9421 156.311 64.6563 155.191 64.3706C155.116 63.5762 155.042 62.8047 154.974 62.0331C154.808 60.13 154.671 58.2269 154.236 56.3523C153.333 52.4546 151.933 48.7684 149.733 45.4079C145.744 39.327 140.063 36.138 132.856 35.595C131.096 35.4636 129.324 35.4179 127.558 35.3264C126.924 35.2922 126.289 35.2464 125.649 35.2064C125.598 35.0235 125.547 34.8692 125.518 34.7092C125.255 33.2519 124.992 31.8002 124.746 30.3372C124.655 29.7828 124.518 29.2456 124.198 28.7826C123.546 27.8339 122.929 26.8567 122.197 25.9765C120.26 23.6333 117.934 21.7016 115.488 19.9128C110.933 16.5923 105.995 13.9405 100.903 11.5573C100.594 11.4145 100.366 11.4945 100.097 11.6145C96.9253 13.0833 93.822 14.6835 90.8216 16.4837C87.2153 18.6498 83.7806 21.0387 80.7573 23.9877C79.3399 25.3707 78.0426 26.8567 77.031 28.5655C76.7395 29.0627 76.4881 29.577 76.3966 30.16C76.2709 30.9487 76.128 31.7374 75.9852 32.526C75.8251 33.4119 75.6594 34.2977 75.4937 35.1893C75.3508 35.2121 75.2536 35.235 75.1508 35.235C73.4877 35.315 71.8246 35.4065 70.1615 35.4693C68.5384 35.5322 66.921 35.6693 65.3208 35.978C61.7831 36.6581 58.5827 38.064 55.8051 40.3843C53.1076 42.6418 51.113 45.4307 49.5814 48.574C47.5297 52.7861 46.3924 57.2324 46.1352 61.9131C46.0895 62.7304 45.9923 63.5419 45.9123 64.3534C45.718 64.4106 45.5865 64.4563 45.4437 64.4906C43.2776 65.0621 41.1002 65.5879 38.9513 66.2166C36.2138 67.0167 33.6305 68.1711 31.3331 69.8971C29.3556 71.383 27.784 73.2061 26.8353 75.5093C25.4922 78.7669 25.2865 82.1217 26.1438 85.5393C26.3895 86.5166 26.681 87.4825 26.9496 88.4483C27.1725 89.2541 27.3954 90.0657 27.624 90.8887C27.4925 90.9687 27.3896 91.043 27.2811 91.0944C26.3266 91.5688 25.3608 92.0317 24.4064 92.5175C22.7376 93.3633 21.0345 94.1348 19.4628 95.1693C16.5252 97.101 14.2335 99.5928 12.759 102.805C11.6903 105.131 11.1245 107.588 10.9816 110.131C10.9073 111.417 10.9702 112.715 10.9702 114.018C11.2273 114.132 11.4502 114.229 11.6788 114.326C14.9079 115.686 18.0054 117.287 20.9087 119.258C23.9606 121.327 26.7095 123.722 28.9213 126.688C31.1216 129.637 32.6075 132.906 33.1276 136.564C33.3905 138.398 33.6763 140.221 34.162 142.01C34.8193 144.428 35.728 146.731 37.1796 148.788C38.0026 149.96 38.957 151.006 40.1972 151.743C40.5972 151.983 41.043 152.177 41.4888 152.292C42.3632 152.509 43.2605 152.657 44.1463 152.835C45.1693 153.04 46.1923 153.258 47.2439 153.475C47.2439 153.692 47.2496 153.869 47.2439 154.052C47.141 155.961 47.0439 157.87 46.9239 159.779C46.821 161.407 46.9067 163.025 47.2782 164.619C47.9869 167.671 49.8671 169.797 52.6161 171.186C55.3765 172.58 58.3198 173.26 61.4059 173.306C63.5262 173.335 65.6408 173.312 67.7611 173.312H68.5041L68.5212 173.3Z" fill="#333333"/>
</svg>
