<svg width="100" height="102" viewBox="0 0 100 102" fill="none" xmlns="http://www.w3.org/2000/svg">
<path d="M67.1717 83.1728C67.1717 85.24 66.778 87.2087 65.9905 89.079C65.3014 90.8508 64.4155 92.4258 63.3327 94.0007C62.3484 95.3788 61.364 96.6585 60.4781 98.0366C60.1828 98.4304 59.8875 98.7257 59.4937 99.1194C58.9031 99.71 58.411 100.399 57.8203 100.99C57.6235 101.187 57.6235 101.383 57.3282 101.383C57.2297 101.383 57.2297 101.383 57.1313 101.383C56.2454 100.891 55.4579 100.399 54.4735 100.005C52.8985 99.2178 51.6189 98.2335 50.1423 97.2491C48.2721 96.0679 46.5987 94.6898 45.1221 93.0164C44.0393 91.7367 43.055 90.4571 42.3659 88.8821C42.2675 88.4884 42.0706 88.193 41.8738 87.7993C41.3816 88.2915 40.8894 88.7837 40.3972 89.2758C39.3144 90.2602 38.0348 91.1461 36.6567 91.8352C35.377 92.5242 33.9989 93.0164 32.6208 93.4101C30.7505 93.9023 28.8802 94.4929 27.01 94.8867C25.7303 95.0835 24.5491 95.2804 23.2694 95.4773C23.171 95.4773 23.0725 95.4773 22.9741 95.5757C22.7772 95.5757 22.5804 95.4773 22.4819 95.2804C21.9897 94.0992 21.4976 92.918 21.0054 91.6383C20.7101 90.8508 20.5132 90.0633 20.3164 89.3743C19.9226 88.0946 19.5289 86.7165 19.2336 85.4369C18.9383 84.2556 18.7414 83.0744 18.7414 81.8932C18.7414 81.4994 18.6429 81.2041 18.6429 80.8104C18.6429 78.9401 18.8398 77.1683 19.4304 75.3964C19.5289 75.0027 19.4304 75.1011 19.1351 75.1011C18.0523 75.1995 16.9695 75.3964 15.7883 75.1996C15.0008 75.1011 14.1149 75.1011 13.3274 74.9042C12.1462 74.6089 11.0634 74.3136 9.98062 73.9199C8.70096 73.4277 7.51972 72.8371 6.33849 72.2465C5.84631 72.0496 5.35413 71.7543 4.86195 71.459C3.28698 70.7699 1.90889 69.7856 0.432351 68.8997C0.333916 68.8012 0.235498 68.8012 0.235498 68.8012C0.0386267 68.7028 -0.059821 68.5059 0.0386147 68.2106C0.629228 66.4388 1.12141 64.5685 2.00733 62.7967C2.89325 60.9264 3.68075 59.0561 4.6651 57.2843C5.45259 56.103 6.24005 54.9218 7.2244 53.839C8.20876 52.7562 9.38999 51.7719 10.6697 51.0828C10.965 50.8859 10.8665 50.8859 10.6697 50.7875C9.09468 49.8032 7.7166 48.6219 6.53537 47.1454C5.25571 45.5704 4.27134 43.897 3.38542 42.1252C2.89324 40.9439 2.40106 39.8612 1.81044 38.6799C1.12139 37.2034 0.629234 35.53 0.137056 33.955C0.137056 33.8566 0.0386147 33.7581 0.0386147 33.6597C-0.059821 33.4628 0.0386267 33.1675 0.235498 33.0691C1.81047 32.0847 3.287 31.0019 5.05884 30.2145C5.94476 29.8207 6.83067 29.3285 7.81502 28.9348C8.79938 28.4426 9.88218 28.0489 10.8665 27.6551C12.0478 27.2614 13.3274 26.9661 14.6071 26.7692C15.5914 26.6708 16.5758 26.4739 17.5601 26.5723C18.1508 26.5723 18.7414 26.6708 19.332 26.7692C19.4304 26.7692 19.5289 26.7692 19.6273 26.7692C19.4304 26.1786 19.332 25.6864 19.1351 25.0958C18.7414 23.4224 18.643 21.8474 18.7414 20.174C18.8398 18.7959 19.0367 17.4178 19.332 16.0397C19.6273 14.8585 19.9226 13.6773 20.3164 12.5945C20.8085 10.6258 21.596 8.85393 22.3835 6.98365C22.482 6.68835 22.5804 6.39303 22.9741 6.39303C23.171 6.39303 23.3679 6.49148 23.5647 6.49148C24.5491 6.58991 25.435 6.78678 26.4194 6.88521C27.2068 6.98365 27.8959 7.18052 28.5849 7.37739C29.963 7.6727 31.3411 8.06645 32.8177 8.46019C34.1958 8.85393 35.4754 9.44454 36.7551 10.0352C38.7238 11.0195 40.3972 12.2992 41.8738 13.9726C41.8738 13.9726 41.8738 14.071 41.9722 14.1695C42.3659 13.382 42.5628 12.6929 42.9566 12.0039C43.744 10.6258 44.6299 9.44454 45.7127 8.36175C46.9924 7.08208 48.3705 5.90086 49.847 4.9165C51.1267 4.03058 52.3079 3.14467 53.5876 2.35718C54.6704 1.76657 55.7532 1.17594 56.836 0.683765C56.9344 0.585329 57.0328 0.585332 57.1313 0.486897C57.3282 0.388461 57.6235 0.388467 57.7219 0.585338C58.2141 1.17595 58.7063 1.76657 59.2969 2.35718C60.2812 3.43997 61.1671 4.6212 62.0531 5.80243C63.0374 7.18053 64.0218 8.55862 64.9077 10.0352C65.8921 11.807 66.6796 13.6773 67.0733 15.646C67.1717 16.2366 67.2701 16.9257 67.2701 17.6147C67.2701 17.91 67.3686 18.2053 67.3686 18.5991C68.0576 18.3038 68.6482 17.91 69.3373 17.7131C70.7154 17.221 72.0935 16.9256 73.4716 16.7288C74.7513 16.5319 76.1294 16.4335 77.409 16.5319C78.5903 16.6303 79.7715 16.6303 81.0511 16.8272C81.7402 16.9257 82.5277 17.0241 83.2167 17.0241C83.9058 17.0241 84.5948 17.3194 85.2839 17.4178C86.0714 17.5163 86.8588 17.7131 87.6463 17.91C87.9416 18.0084 88.0401 18.1069 88.0401 18.4022C88.0401 18.7959 88.0401 19.1897 88.1385 19.5834C88.1385 19.6819 88.1385 19.7803 88.1385 19.7803C88.1385 20.5678 88.1385 21.4537 88.237 22.2412C88.237 22.9302 88.1385 23.7177 88.0401 24.4068C88.0401 24.9974 88.0401 25.588 87.9416 26.0802C87.7448 27.163 87.7448 28.2458 87.5479 29.427C87.351 30.5098 87.0557 31.5926 86.7604 32.6753C86.2682 34.2503 85.5792 35.8253 84.4964 37.2034C84.2995 37.4987 84.1027 37.794 83.8074 38.0893C84.398 38.2862 84.9886 38.3846 85.5792 38.5815C87.0557 39.0737 88.4338 39.6643 89.7135 40.5502C90.4025 40.9439 90.9931 41.4361 91.5838 41.9283C92.2728 42.5189 93.0603 43.208 93.7494 43.7986C94.8321 44.8814 95.8165 45.9642 96.8993 46.9485C97.3915 47.4407 97.8836 48.1298 98.2774 48.6219C98.7695 49.311 99.2617 49.9016 99.8523 50.5906C100.049 50.7875 100.049 50.9844 99.8523 51.1812C99.0649 52.1656 98.2774 53.2484 97.4899 54.2328C96.8993 54.9218 96.2102 55.5124 95.6196 56.2015C94.6353 57.2843 93.5525 58.2686 92.5681 59.253C91.7806 60.0405 90.7963 60.6311 89.9103 61.2217C88.7291 62.0092 87.351 62.6982 85.9729 63.1904C85.2839 63.3873 84.5948 63.5841 83.8074 63.781C84.5948 64.7654 85.2839 65.7497 85.8745 66.9309C86.5636 68.4075 87.0557 69.9825 87.4494 71.6559C87.6463 72.6402 87.7448 73.6246 87.8432 74.7074C87.9417 75.987 88.0401 77.3651 88.1385 78.6448C88.2369 79.5307 88.1385 80.5151 88.1385 81.401C88.1385 81.8932 88.1385 82.2869 88.1385 82.7791C88.1385 83.0744 88.0401 83.3697 88.1385 83.665C88.1385 83.8619 87.9416 84.0588 87.7448 84.0588C86.4651 84.3541 85.2839 84.6494 84.0042 84.8462C83.1183 85.0431 82.3308 85.0431 81.4449 85.1415C80.2637 85.3384 79.1809 85.3384 77.9996 85.4369C77.0153 85.5353 75.9325 85.5353 74.9481 85.4369C74.456 85.4369 73.9638 85.3384 73.4716 85.24C71.6998 85.0431 70.0264 84.6494 68.4514 83.7635C67.9592 83.5666 67.5655 83.3697 67.1717 83.1728ZM66.9748 44.7829C67.3686 44.9798 67.8608 45.0782 68.2545 45.2751C68.9436 45.6688 69.5342 46.161 70.0264 46.6532C70.8138 47.3423 71.5029 47.9329 72.1919 48.7204C72.6841 49.311 73.1763 49.8031 73.6685 50.3938C73.8653 50.5906 73.8653 50.7875 73.6685 50.8859C73.57 50.9844 73.57 50.9844 73.4716 51.0828C72.5857 52.1656 71.6998 53.2484 70.617 54.1343C70.1248 54.6265 69.5342 55.1187 68.9436 55.5124C68.3529 56.0046 67.6639 56.2999 66.8764 56.4968C67.9592 56.3983 68.9436 56.4968 69.9279 56.4968C70.0264 56.4968 70.1248 56.4968 70.2232 56.4968C71.0107 56.5952 71.7982 56.989 72.4873 57.1858C73.4716 57.4811 74.2591 58.0717 74.9481 58.7608C75.3419 59.253 75.7356 59.6467 76.1293 60.1389C76.2278 60.3358 76.3262 60.3358 76.5231 60.2373C77.5075 59.942 78.4918 59.6467 79.3777 59.1545C80.1652 58.7608 80.9527 58.3671 81.6418 57.9733C82.2324 57.678 82.823 57.3827 83.4136 56.989C85.1855 55.8077 86.8588 54.5281 88.5322 53.2484C89.615 52.3625 90.5994 51.3781 91.7806 50.5906C91.9775 50.3938 91.9775 50.2953 91.7806 50.0985C91.5838 49.9016 91.2885 49.8032 91.0916 49.6063C90.4025 49.0157 89.7135 48.4251 89.0244 47.8344C87.6463 46.7516 86.2682 45.5704 84.6933 44.5861C84.0042 44.1923 83.4136 43.7001 82.7245 43.3064C81.7402 42.8142 80.7558 42.2236 79.673 41.7314C78.5902 41.2393 77.5075 40.8455 76.4247 40.5502C76.2278 40.5502 76.1294 40.5502 76.0309 40.6486C75.7356 41.0424 75.4403 41.3377 75.2434 41.633C74.8497 42.1252 74.3575 42.6173 73.7669 43.0111C72.881 43.6017 71.8966 43.897 70.9123 44.1923C69.731 44.9798 68.3529 44.7829 66.9748 44.7829ZM59.1 67.2263C59.789 67.7184 60.4781 68.4075 61.0687 68.8997C61.6593 69.3918 61.9546 70.1793 62.4468 70.8684C63.1358 71.9512 63.5296 73.1324 63.5296 74.4121C63.5296 74.9042 63.5296 75.3964 63.5296 75.8886C63.5296 75.987 63.5296 76.0855 63.7265 76.1839C64.4155 76.4792 65.1046 76.7745 65.8921 77.0698C66.8764 77.3651 67.8608 77.6604 68.8451 77.7589C69.5342 77.8573 70.1248 78.1526 70.8138 78.1526C71.5029 78.2511 72.0935 78.2511 72.7825 78.3495C74.0622 78.5464 75.2435 78.5464 76.5231 78.6448C78.1965 78.7432 79.8699 78.6448 81.5433 78.6448C82.0355 78.6448 82.0355 78.6448 81.9371 78.1526C81.7402 77.0698 81.5433 76.0855 81.4449 75.0027C81.248 73.5261 80.8543 72.0496 80.4605 70.6715C80.0668 68.8012 79.3777 66.9309 78.5902 65.1591C77.9996 63.781 77.3106 62.4029 76.4247 61.1233C76.3262 61.0248 76.2278 60.9264 76.1293 60.9264C75.6372 61.1233 75.0466 61.1232 74.456 61.2217C73.8653 61.3201 73.3732 61.3201 72.7825 61.3201C71.7982 61.2217 70.9123 60.8279 69.9279 60.4342C69.4357 60.2373 69.042 59.942 68.5498 59.6467C67.8608 59.0561 67.1717 58.5639 66.5811 57.9733C67.0733 58.8592 67.3686 59.8436 67.5655 60.9264C67.7623 62.3045 67.9592 63.6826 67.9592 65.1591C67.9592 65.6513 67.9592 66.1435 67.9592 66.5372C67.9592 66.7341 67.8608 66.9309 67.6639 66.9309C67.3686 66.9309 66.9749 67.0294 66.6796 67.1278C65.7936 67.2262 64.9077 67.5216 64.0218 67.5216C62.3484 67.62 60.675 67.9153 59.1 67.2263ZM57.525 33.3644C57.525 32.4785 57.8203 31.5926 57.9188 30.7066C58.1156 29.7223 58.7062 29.0332 59.1 28.1473C59.3953 27.5567 59.789 27.0645 60.3796 26.5723C61.0687 25.9817 61.8562 25.4895 62.6437 25.0958C62.8406 24.9974 62.939 24.8989 62.939 24.6036C62.8405 23.9146 62.7421 23.1271 62.6437 22.438C62.4468 21.3553 62.0531 20.2725 61.7578 19.2881C61.364 17.8116 60.675 16.335 59.9859 14.9569C58.9031 12.5945 57.525 10.3305 56.2454 8.06644C56.1469 7.77113 55.9501 7.77114 55.7532 7.96801C55.5563 8.16488 55.3594 8.36174 55.1626 8.55862C54.2766 9.3461 53.1939 10.0352 52.3079 10.9211C51.9142 11.2164 51.6189 11.6101 51.2251 11.9054C49.7486 13.2835 48.2721 14.5632 47.0908 16.2366C46.894 16.5319 46.6971 16.8272 46.5002 17.0241C45.5159 18.2053 44.63 19.3865 43.9409 20.7646C43.5472 21.5521 43.5472 21.5521 44.2362 22.2412C44.9253 23.0287 45.5159 23.8161 45.9096 24.8989C46.1065 25.3911 46.1065 25.9817 46.2049 26.4739C46.5002 27.6551 46.4018 28.7379 46.2049 29.9192C46.1065 30.4113 46.0081 30.9035 45.9096 31.3957C46.1065 31.1004 46.2049 30.8051 46.4018 30.6082C47.2877 29.427 48.4689 28.5411 49.6502 27.6551C50.5361 26.9661 51.6189 26.4739 52.6032 25.7849C52.8001 25.6864 52.997 25.7849 53.0954 25.8833C53.1938 25.9817 53.1939 25.9817 53.1939 26.0802C54.0798 27.163 55.0641 28.2458 55.7532 29.427C56.2454 30.3129 56.836 31.1004 57.1313 32.0847C57.3282 32.4785 57.3281 32.9707 57.525 33.3644ZM45.9096 70.0809C46.1065 70.5731 46.1065 71.0652 46.2049 71.5574C46.3034 72.3449 46.5002 73.1324 46.4018 73.9199C46.3034 74.3136 46.2049 74.7074 46.2049 75.1011C46.1065 76.1839 45.7127 77.1683 45.1221 78.0542C44.7284 78.6448 44.2362 79.137 43.744 79.7276C43.6456 79.826 43.6456 79.9245 43.744 80.0229C44.0393 80.7119 44.4331 81.4994 44.8268 82.09C45.9096 83.665 46.9924 85.1415 48.2721 86.5196C49.3549 87.7009 50.5361 88.7837 51.7173 89.8665C52.6032 90.6539 53.4892 91.343 54.3751 92.1305C54.8673 92.5242 55.3594 92.918 55.7532 93.3117C55.9501 93.5086 56.1469 93.5086 56.2454 93.2133C56.3438 93.0164 56.4422 92.7211 56.6391 92.5242C57.1313 91.7367 57.525 90.9492 58.0172 90.2602C58.7062 89.079 59.2969 87.7993 59.8875 86.6181C61.0687 84.3541 61.7578 81.9916 62.4468 79.5307C62.6437 78.6448 62.8405 77.8573 62.939 76.9714C63.0374 76.1839 63.0374 76.3808 62.4468 76.0855C61.4624 75.4949 60.3797 75.0027 59.6906 74.0183C59.0016 73.1324 58.3125 72.148 58.0172 70.9668C57.7219 69.9825 57.525 68.9981 57.525 67.8169C57.4266 68.0137 57.4266 68.1122 57.4266 68.2106C57.2297 69.195 56.836 70.0809 56.3438 70.8684C55.4579 72.5418 54.2766 73.9199 53.0954 75.3964C52.997 75.5933 52.8001 75.6917 52.6032 75.4948C52.1111 75.1011 51.5204 74.8058 51.0283 74.5105C49.6502 73.723 48.4689 72.7387 47.2877 71.7543C46.6971 71.3606 46.3034 70.7699 45.9096 70.0809ZM66.4827 43.208C67.1717 42.5189 67.9592 41.9283 68.6483 41.3377C69.4358 40.7471 70.3216 40.5502 71.2076 40.2549C71.8966 39.9596 72.6841 39.8611 73.4716 39.8611C74.2591 39.9596 75.0466 40.058 75.8341 40.2549C76.0309 40.3533 76.1294 40.2549 76.2278 40.1565C76.8184 39.2705 77.5075 38.2862 77.9012 37.2034C78.0981 36.6128 78.3934 36.0222 78.6887 35.4315C78.984 34.5456 79.4762 33.7581 79.673 32.8722C80.1652 31.2973 80.4605 29.7223 80.8543 28.1473C81.0511 27.163 81.248 26.1786 81.4449 25.1942C81.5433 24.5052 81.6418 23.7177 81.8386 23.0287C81.8386 22.7334 81.7402 22.7334 81.5433 22.7334C81.248 22.7334 80.9527 22.7334 80.6574 22.7334C79.2793 22.6349 77.8028 22.6349 76.4247 22.7334C75.145 22.8318 73.8654 22.8318 72.5857 23.0287C71.8966 23.1271 71.1091 23.1271 70.3217 23.324C69.2389 23.6193 68.0576 23.8161 66.8764 24.1115C65.9905 24.4068 65.0061 24.6036 64.1202 24.9974C63.2343 25.3911 63.3327 25.3911 63.3327 26.3755C63.3327 27.3598 63.3327 28.2457 63.0374 29.2301C62.7421 30.0176 62.2499 30.7066 61.8562 31.3957C61.5609 31.8879 61.1672 32.38 60.7734 32.7738C60.1828 33.266 59.5922 33.7581 59.0016 34.3488C60.1828 33.8566 61.4625 33.955 62.7421 33.955C63.1359 33.955 63.628 33.955 64.0218 33.955C65.203 34.1519 66.3842 34.2503 67.467 34.4472C67.6639 34.4472 67.8608 34.6441 67.7623 34.8409C67.7623 34.9394 67.7623 35.1362 67.7623 35.2347C67.7623 36.1206 67.7623 37.105 67.7623 37.9909C67.6639 39.0737 67.467 40.1565 67.2701 41.2393C67.2701 41.8299 66.9748 42.5189 66.4827 43.208ZM44.2362 31.5926C43.6456 30.7066 43.055 29.7223 42.6612 28.7379C42.3659 28.1473 42.3659 27.5567 42.2675 26.9661C42.0706 25.9817 41.9722 24.8989 42.2675 23.9146C42.4644 23.2255 42.6612 22.5365 42.9566 21.9459C43.055 21.749 43.1534 21.6506 42.9566 21.4537C42.3659 20.8631 41.7753 20.2725 41.0863 19.7803C40.2988 19.1897 39.5113 18.6975 38.7238 18.2053C37.9363 17.8116 37.2473 17.221 36.4598 16.8272C34.5895 15.8429 32.6208 15.0554 30.6521 14.2679C29.4709 13.7757 28.1912 13.382 27.01 12.9882C26.7147 12.8898 26.6162 12.8898 26.6162 13.2835C26.5178 14.071 26.3209 14.8585 26.2225 15.646C26.1241 16.1382 25.9272 16.7288 25.9272 17.221C25.8287 17.91 25.7303 18.5006 25.6319 19.1897C25.5334 19.8787 25.435 20.5678 25.3366 21.2568C25.3366 21.749 25.2381 22.3396 25.2381 22.8318C25.2381 23.324 25.1397 23.8161 25.1397 24.2099C25.2381 25.2927 25.2381 26.3755 25.3366 27.4583C25.435 28.7379 25.6319 29.9192 25.9272 31.1004C26.0256 31.2973 26.0256 31.3957 26.3209 31.3957C26.6162 31.3957 26.9116 31.4941 27.3053 31.4941C28.2897 31.691 29.1756 31.8879 30.0615 32.4785C30.6521 32.8722 31.1443 33.3644 31.6365 33.7581C31.9318 33.955 32.2271 34.2503 32.5224 34.6441C33.113 35.53 33.7036 36.4159 34.1958 37.4003C33.9989 36.5143 33.9989 35.6284 34.1958 34.7425C34.3927 33.8566 34.4911 32.8722 34.7864 31.9863C35.0817 31.0019 35.377 30.0176 35.7707 29.1317C35.9676 28.5411 35.9676 28.5411 36.4598 28.6395C37.8379 28.8364 39.1176 29.0332 40.3972 29.5254C41.3816 29.9192 42.3659 30.116 43.2519 30.7066C43.5472 31.0019 43.8425 31.2973 44.2362 31.5926ZM34.0973 63.8795C33.7036 64.5685 33.3099 65.2575 32.9161 65.9466C32.2271 67.2263 31.0458 68.0137 29.8646 68.8012C28.8802 69.4903 27.699 69.6872 26.6162 69.7856C26.0256 69.884 26.0256 69.7856 25.8288 70.4746C25.7303 70.8684 25.6319 71.1637 25.6319 71.5574C25.2381 73.1324 25.3366 74.8058 25.2381 76.3808C25.1397 76.9714 25.2381 77.562 25.2381 78.1526C25.2381 78.9401 25.3366 79.6291 25.435 80.4166C25.6319 81.6963 25.7303 82.8775 25.9272 84.1572C26.124 85.4368 26.5178 86.8149 26.6162 88.0946C26.6162 88.2915 26.8131 88.3899 27.01 88.2915C27.3053 88.193 27.6006 88.0946 27.7975 87.9962C28.6834 87.7009 29.4709 87.4056 30.3568 87.1103C31.538 86.6181 32.7192 86.1259 33.9005 85.6337C35.8692 84.8462 37.7395 83.7635 39.5113 82.5822C40.6925 81.7947 41.7753 81.0072 42.7597 80.0229C42.9565 79.826 43.055 79.6292 42.8581 79.3338C42.4644 78.4479 42.1691 77.562 42.0706 76.5776C41.9722 75.1995 42.1691 73.8214 42.6612 72.5418C43.055 71.459 43.6456 70.5731 44.3346 69.5887C43.9409 69.884 43.744 70.0809 43.4487 70.2778C42.2675 71.0653 40.9879 71.459 39.6097 71.8527C38.6254 72.148 37.5426 72.3449 36.4598 72.5418C36.2629 72.5418 36.066 72.6402 35.8692 72.6402C35.5739 72.5418 35.5739 72.3449 35.4754 72.0496C34.9833 70.6715 34.3927 69.2934 34.1958 67.8169C34.0974 67.1278 33.802 66.4388 33.9005 65.6513C33.9005 65.0607 33.9005 64.4701 34.0973 63.8795ZM32.9161 62.5998C32.2271 62.5998 31.6365 62.5998 31.0458 62.4029C29.963 62.1076 28.8802 61.7139 27.8959 61.2217C26.8131 60.7295 25.8288 60.1389 24.746 59.5483C24.5491 59.4498 24.5491 59.253 24.6475 59.0561C24.6475 58.9577 24.746 58.8592 24.746 58.7608C25.2381 57.2843 25.8288 55.9062 26.6162 54.5281C27.2069 53.4453 27.8959 52.3625 28.8802 51.575C28.4865 51.6734 28.0928 51.8703 27.7975 51.9687C26.6162 52.4609 25.3366 52.7562 23.9585 52.6578C23.6632 52.6578 23.3679 52.6578 23.0725 52.6578C22.5804 52.6578 22.1866 52.5593 21.7929 52.4609C20.907 52.1656 20.021 51.6734 19.2336 51.1812C19.0367 50.9844 18.8398 50.9844 18.5445 51.1812C18.2492 51.4766 17.8555 51.7719 17.4617 51.9687C16.5758 52.6578 15.7883 53.5437 15.0008 54.4296C14.5087 55.0202 13.9181 55.414 13.5243 56.0046C12.3431 57.4811 11.2603 59.0561 10.2759 60.6311C9.29156 62.1076 8.50409 63.781 7.51973 65.2575C7.42129 65.4544 7.4213 65.5528 7.61817 65.6513C7.91348 65.7497 8.20878 65.8482 8.50409 65.9466C9.29157 66.2419 10.1775 66.6356 10.965 66.9309C12.6384 67.5216 14.4102 68.1122 16.1821 68.5059C17.068 68.7028 17.8555 68.9981 18.7414 69.0965C19.2336 69.0965 19.7257 69.195 20.1195 69.2934C21.1038 69.4903 21.9897 69.5887 22.9741 69.5887C23.6632 69.5887 24.3522 69.5887 25.0413 69.5887C25.435 69.5887 25.5334 69.4903 25.6319 69.0965C25.8288 68.4075 26.124 67.7184 26.4194 67.0294C27.01 65.7497 28.0928 65.0607 29.0771 64.1747C29.6677 63.6826 30.4552 63.4857 31.1443 63.1904C31.8333 62.8951 32.4239 62.6982 32.9161 62.5998ZM32.9161 38.7784C31.8333 38.3846 30.6521 38.0893 29.6677 37.4987C29.1756 37.2034 28.7818 36.8096 28.3881 36.4159C27.8959 36.0222 27.4037 35.6284 27.01 35.1362C26.4194 34.2503 26.0256 33.266 25.7303 32.2816C25.6319 31.9863 25.5334 31.7894 25.2381 31.8879C25.0413 31.8879 24.9428 31.8879 24.746 31.8879C24.0569 31.7894 23.2694 31.7894 22.5804 31.8879C21.596 31.9863 20.7101 32.0847 19.7257 32.1832C19.2336 32.2816 18.7414 32.2816 18.2492 32.3801C17.3633 32.5769 16.4774 32.8722 15.493 33.0691C14.6071 33.266 13.8196 33.5613 12.9337 33.8566C11.8509 34.1519 10.7681 34.5456 9.6853 35.0378C8.99625 35.3331 8.40563 35.53 7.71658 35.7269C7.32284 35.8253 7.32286 35.9237 7.51973 36.219C7.61816 36.4159 7.81503 36.7112 7.91347 36.9081C8.30721 37.6956 8.79937 38.4831 9.19312 39.2705C10.079 40.7471 10.965 42.2236 12.0478 43.6017C12.7368 44.4876 13.3274 45.472 14.2133 46.3579C14.4102 46.5548 14.6071 46.6532 14.7055 46.8501C15.7883 48.1297 16.9695 49.2125 18.2492 50.1969C18.643 50.4922 18.8398 50.3938 19.1351 50.1969C20.2179 49.5078 21.3991 48.8188 22.6788 48.7204C24.1553 48.6219 25.7303 48.6219 27.1084 49.2125C27.6006 49.4094 28.0928 49.6063 28.5849 49.8032C28.4865 49.7047 28.3881 49.6063 28.2897 49.5078C27.01 48.4251 26.3209 46.9485 25.6319 45.472C25.1397 44.4876 24.746 43.3064 24.3522 42.322C24.2538 42.1252 24.3522 41.9283 24.5491 41.8299C25.1397 41.5346 25.7303 41.2392 26.2225 40.8455C27.699 39.9596 29.1756 39.4674 30.7505 38.9752C31.6365 38.7784 32.3255 38.7784 32.9161 38.7784ZM24.2538 31.2973C24.2538 31.1988 24.2538 31.1988 24.2538 31.2973C24.1554 31.1988 23.9585 31.1004 23.8601 31.1004C22.1866 30.3129 21.0054 29.1317 20.1195 27.5567C20.021 27.3598 19.8242 27.163 19.5289 27.163C19.0367 27.0645 18.5445 26.9661 18.0523 26.9661C16.2805 26.8677 14.6071 27.0645 12.8352 27.5567C11.2603 27.9504 9.78374 28.541 8.3072 29.2301C5.74788 30.4113 3.28698 31.691 0.924529 33.266C0.727658 33.3644 0.62924 33.4628 0.727676 33.6597C1.02298 34.9394 1.51514 36.1206 1.90889 37.3018C2.59794 38.9752 3.287 40.5502 4.07448 42.2236C5.25571 44.6845 6.83068 46.9485 8.99626 48.8188C9.68531 49.4094 10.4728 49.9016 11.2603 50.3938C11.3587 50.4922 11.4572 50.4922 11.5556 50.4922C12.1462 50.1969 12.8353 50 13.5243 49.9016C14.3118 49.8031 15.0008 49.8031 15.7883 49.9016C16.3789 50 16.8711 50.0985 17.4617 50.2953C17.1664 49.9016 16.7727 49.7047 16.4774 49.4094C15.7883 48.7204 15.0993 47.9329 14.4102 47.2438C13.3274 46.161 12.3431 44.8814 11.4572 43.6017C10.8665 42.8142 10.4728 42.0267 9.88218 41.2393C8.79939 39.6643 8.01191 37.8924 7.02755 36.3175C6.73224 35.8253 6.92912 35.4315 7.51973 35.2347C7.81504 35.1362 8.11034 35.0378 8.50409 34.9394C9.29157 34.6441 10.079 34.2503 10.8665 34.0535C12.6384 33.5613 14.3118 32.8722 16.0836 32.4785C17.6586 32.0847 19.2336 31.7894 20.907 31.691C21.9898 31.5926 22.9741 31.3957 24.0569 31.4941C24.1553 31.2973 24.2538 31.3957 24.2538 31.2973ZM24.3522 70.0809C24.2538 69.9825 24.1553 69.9825 24.0569 69.9825C23.7616 69.9825 23.4663 70.0809 23.171 70.0809C22.5804 69.9825 21.9898 69.884 21.3992 69.884C20.4148 69.884 19.5289 69.6871 18.5445 69.5887C17.3633 69.3918 16.182 69.0965 15.0993 68.8012C12.9337 68.2106 10.7681 67.4231 8.70094 66.6356C8.3072 66.4388 7.91347 66.3403 7.51973 66.2419C7.12599 66.045 7.02753 65.7497 7.2244 65.356C7.32284 65.0607 7.61815 64.7654 7.71658 64.4701C8.6025 62.8951 9.48844 61.4186 10.3744 59.8436C11.2603 58.4655 12.1462 57.0874 13.229 55.8077C14.3118 54.4296 15.5914 53.2484 16.7727 52.0672C17.068 51.7719 17.3633 51.6734 17.6586 51.2797C17.068 51.3781 16.4774 51.575 15.9852 51.6734C14.7055 51.8703 13.5243 51.6734 12.3431 51.2797C11.8509 51.0828 11.4572 51.0828 10.965 51.3781C9.78375 52.1656 8.70094 53.0515 7.71658 54.0359C6.73223 55.1187 5.94477 56.2999 5.15728 57.4811C4.27136 58.9577 3.68073 60.5326 2.89324 62.1076C2.10576 63.8794 1.4167 65.7497 0.826088 67.7184C0.826088 67.9153 0.727658 68.0137 0.924529 68.1122C2.00732 68.8997 3.18856 69.5887 4.46822 70.2778C5.74788 70.9668 7.12599 71.5574 8.50409 72.2465C10.7681 73.3293 13.1305 74.1168 15.6899 74.3136C17.068 74.4121 18.3476 74.4121 19.7257 74.2152C19.9226 74.2152 20.1195 74.0183 20.2179 73.8214C20.907 72.5418 21.7929 71.459 23.0725 70.6715C23.4663 70.5731 23.8601 70.3762 24.3522 70.0809ZM43.6456 81.1057C43.6456 81.3026 43.6456 81.401 43.6456 81.4994C43.6456 81.5979 43.744 81.6963 43.744 81.7947C43.8425 83.4681 43.5471 85.0431 42.6612 86.5196C42.3659 86.9134 42.3659 87.3071 42.5628 87.7993C43.5472 90.3586 45.2206 92.4258 47.2877 94.1976C48.8627 95.6741 50.733 96.7569 52.4064 97.9382C53.8829 98.9225 55.4579 99.8085 57.0328 100.498C57.2297 100.596 57.3281 100.596 57.4266 100.498C58.3125 99.6116 59.1 98.7257 59.8875 97.7413C61.0687 96.2648 62.1515 94.6898 63.2343 93.2133C64.3171 91.7367 65.1046 90.0633 65.6952 88.3899C66.2858 86.8149 66.6796 85.1415 66.6796 83.4681C66.6796 83.0744 66.6795 82.7791 66.2858 82.4838C65.203 81.5979 64.4155 80.5151 63.8249 79.2354C63.628 78.7432 63.5296 78.251 63.3327 77.7589C63.1358 78.3495 63.1358 78.9401 62.939 79.4323C62.6437 80.4166 62.3484 81.401 62.1515 82.3853C61.9546 82.8775 61.8562 83.4681 61.6593 83.9603C60.9703 85.5353 60.2812 87.0118 59.4937 88.5868C58.6078 90.3586 57.525 91.9336 56.6391 93.7054C56.3438 94.2961 55.8516 94.3945 55.3595 93.9023C55.1626 93.7055 54.9657 93.5086 54.7688 93.3117C53.9813 92.6227 53.0954 92.032 52.3079 91.343C50.9298 90.0633 49.4533 88.8821 48.1736 87.4056C47.8783 87.1103 47.4846 86.8149 47.2877 86.4212C46.4018 85.3384 45.6143 84.1572 44.8268 83.0744C44.3346 82.3854 44.1378 81.7947 43.6456 81.1057ZM63.3327 23.7177C63.4312 23.5208 63.4312 23.4224 63.4312 23.324C63.8249 21.4537 64.8093 19.9772 66.3842 18.7959C66.5811 18.6975 66.5811 18.5991 66.5811 18.3038C66.5811 17.5163 66.5811 16.7288 66.4827 16.0397C66.2858 14.7601 65.8921 13.5788 65.3999 12.3976C64.7108 10.6258 63.7265 8.95237 62.6437 7.47583C61.5609 5.9993 60.5765 4.52275 59.3953 3.14466C58.7062 2.35717 58.1156 1.66812 57.4266 0.979075C57.3281 0.880639 57.2297 0.782213 57.0328 0.880648C55.8516 1.37283 54.6704 2.06186 53.5876 2.65248C52.1111 3.63683 50.6345 4.62119 49.158 5.60555C47.6815 6.5899 46.4018 7.86957 45.2206 9.14924C44.1378 10.4289 43.2519 11.807 42.5628 13.2835C42.2675 13.8741 42.2675 14.3663 42.6612 15.0554C43.2518 16.0397 43.5471 17.1225 43.6456 18.3038C43.6456 18.8944 43.6456 19.485 43.5472 20.174C43.9409 19.7803 44.0393 19.2881 44.3346 18.9928C44.9253 18.2053 45.4175 17.5163 46.0081 16.7288C46.9924 15.3507 48.0752 14.1694 49.2564 12.9882C50.8314 11.4132 52.6033 9.83829 54.3751 8.46019C54.7688 8.16488 55.1626 7.6727 55.6547 7.37739C56.0485 7.18052 56.3438 7.18052 56.6391 7.57426C56.836 7.86957 57.0329 8.26331 57.2297 8.55862C57.7219 9.3461 58.2141 10.1336 58.6078 10.8226C59.0016 11.5117 59.2969 12.2007 59.6906 12.8898C60.5765 14.3663 61.2656 15.9413 61.8562 17.5163C62.3484 18.7959 62.6437 20.174 63.0374 21.4537C63.1359 22.2412 63.1358 22.9302 63.3327 23.7177ZM77.7043 60.6311C78.0981 60.6311 78.3934 60.7295 78.7871 60.7295C80.3621 60.9264 81.8386 61.6154 83.0198 62.6982C83.2167 62.8951 83.512 62.9935 83.8074 62.8951C84.398 62.7967 85.087 62.5998 85.6776 62.4029C87.1542 62.0092 88.4338 61.2217 89.615 60.4342C90.8947 59.6467 92.0759 58.6624 93.0603 57.5796C93.7493 56.8905 94.4384 56.2015 95.1274 55.5124C96.604 54.0359 97.8837 52.4609 99.1633 50.7875C99.2617 50.5906 99.2617 50.4922 99.1633 50.3938C98.6711 49.7047 98.0805 49.0157 97.5883 48.3266C96.604 46.9485 95.3243 45.8657 94.2415 44.6845C93.454 43.897 92.6665 43.1095 91.8791 42.4205C90.9931 41.7314 90.1072 41.0424 89.2213 40.5502C87.5479 39.4674 85.7761 38.7784 83.9058 38.3846C83.6105 38.2862 83.3152 38.3846 83.1183 38.5815C82.5277 39.1721 81.7402 39.6643 80.8543 40.058C79.9684 40.5502 78.8856 40.6486 77.9012 40.7471C78.295 40.944 78.6887 41.0424 78.984 41.1408C80.1652 41.633 81.248 42.2236 82.4293 42.8142C82.823 43.0111 83.3152 43.208 83.7089 43.5033C84.8901 44.2907 86.1698 45.0782 87.351 46.0626C88.1385 46.6532 88.926 47.3423 89.7135 47.9329C90.5994 48.6219 91.3869 49.4094 92.2728 50.0985C92.765 50.4922 92.765 50.9844 92.2728 51.3781C91.9775 51.575 91.6822 51.7719 91.3869 52.0672C90.5994 52.6578 89.9104 53.4453 89.1229 54.0359C87.7448 55.0202 86.4651 56.2015 84.9886 57.0874C84.3979 57.4811 83.8073 57.9733 83.1183 58.2686C81.9371 58.9577 80.6574 59.4498 79.4762 60.1389C78.8856 60.2373 78.2949 60.3358 77.7043 60.6311ZM64.4155 24.2099C64.9077 24.2099 65.203 23.9146 65.5968 23.8161C67.3686 23.324 69.042 22.8318 70.9123 22.6349C71.7982 22.5365 72.7825 22.3396 73.7669 22.3396C74.8497 22.2412 75.9325 22.2412 77.0153 22.2412C78.5903 22.2412 80.1652 22.2412 81.7402 22.2412C82.2324 22.2412 82.5277 22.5365 82.4293 23.0287C82.2324 23.9146 82.1339 24.8989 81.9371 25.7849C81.7402 27.0645 81.4449 28.3442 81.1496 29.6239C80.8543 31.1988 80.3621 32.7738 79.8699 34.2503C79.673 34.8409 79.3777 35.4316 79.0824 36.0222C78.6887 37.105 78.1965 38.0893 77.6059 39.0737C77.5074 39.2705 77.409 39.369 77.409 39.5658C77.5075 39.5658 77.6059 39.4674 77.6059 39.4674C78.1965 38.9752 78.8856 38.5815 79.5746 38.3846C80.6574 37.9909 81.7402 37.794 82.823 37.8924C83.0199 37.8924 83.1183 37.8924 83.3152 37.6956C83.6105 37.4003 83.8073 37.0065 84.1026 36.7112C85.087 35.4315 85.7761 33.955 86.2682 32.3801C86.5635 31.2973 86.8588 30.2145 87.0557 29.1317C87.2526 27.9504 87.2526 26.8677 87.4494 25.6864C87.5479 25.1942 87.4495 24.6036 87.5479 24.1115C87.7448 22.9302 87.6463 21.749 87.6463 20.6662C87.6463 19.9772 87.5479 19.1897 87.5479 18.5006C87.5479 18.3037 87.5479 18.2053 87.351 18.2053C86.7604 18.1069 86.2682 17.91 85.7761 17.8116C84.8901 17.7131 84.0042 17.4178 83.1183 17.3194C82.4292 17.221 81.7402 17.221 81.0511 17.1225C79.9683 16.9257 78.8856 16.9257 77.8028 16.8272C76.0309 16.7288 74.2591 16.8272 72.4873 17.1225C70.8138 17.4178 69.3373 18.0084 67.8608 18.7959C67.5655 18.8944 67.467 19.0912 67.3686 19.485C67.3686 19.6818 67.3686 19.8787 67.2701 20.0756C66.9748 21.1584 66.5811 22.2412 65.8921 23.1271C65.3014 23.324 64.9077 23.7177 64.4155 24.2099ZM77.3106 61.8123C77.409 62.3045 77.7043 62.5998 77.9012 62.9935C78.3934 64.0763 78.8856 65.1591 79.3777 66.2419C79.5746 66.7341 79.8699 67.2263 79.9684 67.7184C80.4605 69.2934 80.8543 70.8684 81.248 72.5418C81.7402 74.5105 81.9371 76.5776 82.3308 78.5464C82.4292 79.0385 82.1339 79.3338 81.6418 79.4323C81.3464 79.4323 80.9527 79.4323 80.6574 79.4323C79.3777 79.5307 78.0981 79.5307 76.8184 79.4323C75.3419 79.3338 73.9638 79.3338 72.4873 79.137C71.7982 79.0385 71.0107 79.0385 70.3217 78.8417C69.731 78.7432 69.1404 78.5463 68.5498 78.4479C67.3686 78.1526 66.1874 77.9557 65.0061 77.4636C64.8093 77.3651 64.7108 77.2667 64.514 77.3651C64.8093 77.6604 65.1046 77.9557 65.3999 78.251C66.2858 79.3338 66.778 80.5151 67.0733 81.7947C67.1717 82.1885 67.1717 82.6806 67.6639 82.8775C70.0264 84.2556 72.6841 84.7478 75.3419 84.8462C76.4247 84.8462 77.5074 84.8462 78.5902 84.7478C79.9683 84.6494 81.4449 84.4525 82.823 84.2556C84.2995 84.0588 85.6776 83.7634 87.1542 83.3697C87.351 83.3697 87.351 83.2713 87.351 83.1728C87.351 82.5822 87.4494 81.9916 87.4494 81.401C87.4494 81.1057 87.4494 80.7119 87.4494 80.4166C87.5479 79.5307 87.4495 78.5464 87.351 77.6604C87.2526 76.6761 87.1542 75.5933 87.1542 74.6089C87.0557 73.5261 86.9573 72.5418 86.7604 71.5574C86.5635 70.5731 86.2682 69.5887 85.9729 68.6044C85.3823 66.9309 84.5948 65.4544 83.512 64.0763C83.3152 63.781 83.0199 63.5841 82.6261 63.6826C82.2324 63.6826 81.7402 63.6826 81.3465 63.5841C80.4605 63.3873 79.5746 63.1904 78.7871 62.7967C78.1965 62.4029 77.8028 62.1076 77.3106 61.8123ZM25.1397 70.9668C25.0413 71.0653 25.0413 71.0652 25.0413 71.1637C24.6475 71.7543 24.2538 72.3449 23.6632 72.8371C22.7772 73.6246 21.7929 74.2152 20.7101 74.5105C20.5132 74.6089 20.3164 74.7074 20.2179 74.9042C19.8242 76.0855 19.5289 77.2667 19.4304 78.4479C19.332 80.0229 19.332 81.4994 19.5289 83.0744C19.6273 84.1572 19.9226 85.24 20.2179 86.2243C20.7101 87.9962 21.1038 89.768 21.7929 91.5399C22.0882 92.2289 22.3835 93.0164 22.6788 93.7054C22.9741 94.3945 23.2694 94.6898 24.0569 94.4929C25.0413 94.2961 26.0256 94.1976 27.01 94.0007C28.6834 93.7054 30.4552 93.2133 32.1286 92.7211C33.4083 92.3273 34.688 91.9336 35.9676 91.343C37.9363 90.4571 39.7082 89.2758 41.1847 87.7009C41.5784 87.2087 41.8737 86.815 41.6769 86.0275C41.3816 84.8462 41.5784 83.665 41.8738 82.4838C42.0706 81.8932 42.2675 81.401 42.5628 80.8104C42.1691 81.0072 41.9722 81.3026 41.6769 81.4994C40.6925 82.2869 39.6097 82.8775 38.6254 83.5666C37.3457 84.4525 35.9676 85.1415 34.5895 85.7322C33.113 86.4212 31.538 87.0118 29.963 87.6024C28.9787 87.8977 28.0928 88.193 27.1084 88.5868C26.5178 88.8821 26.1241 88.5868 26.0256 87.9962C26.0256 87.7993 25.9272 87.6024 25.9272 87.504C25.8287 86.1259 25.3366 84.8462 25.2381 83.4681C25.1397 82.4838 25.0413 81.5979 24.8444 80.6135C24.746 80.1213 24.8444 79.5307 24.746 79.0385C24.6475 78.2511 24.6475 77.562 24.6475 76.7745C24.6475 75.4949 24.746 74.3136 24.8444 73.034C24.9428 72.4433 24.9428 71.9512 25.0413 71.459C25.1397 71.459 25.2381 71.2621 25.1397 70.9668ZM42.4644 20.3709C42.4644 20.2725 42.4644 20.2725 42.4644 20.2725C42.3659 20.174 42.3659 20.0756 42.2675 19.8787C41.48 18.3037 41.2832 16.6303 41.5785 14.9569C41.6769 14.6616 41.7753 14.2679 41.48 13.9726C40.6925 13.0867 39.905 12.2992 38.9207 11.6101C37.2473 10.4289 35.4754 9.54298 33.5067 8.85393C31.8333 8.26331 30.1599 7.96801 28.5849 7.47583C27.6006 7.18053 26.6162 7.08208 25.6319 6.88521C24.8444 6.78678 24.0569 6.68834 23.2694 6.5899C23.171 6.5899 23.0725 6.58991 22.9741 6.68834C22.3835 7.86957 21.8913 9.05081 21.4976 10.232C20.8085 12.3976 20.1195 14.5632 19.7257 16.8272C19.5289 17.91 19.332 18.9928 19.332 20.0756C19.332 20.9615 19.332 21.8474 19.4304 22.7334C19.5289 23.9146 19.8242 24.9974 20.2179 26.1786C20.3164 26.3755 20.4148 26.5723 20.7101 26.5723C22.4819 27.163 23.9585 28.2457 25.0413 29.8207C25.0413 29.9192 25.1397 30.0176 25.2381 30.0176C25.2381 29.9192 25.2381 29.7223 25.2381 29.6239C25.1397 29.1317 25.0413 28.6395 25.0413 28.1473C24.9428 27.0645 24.8444 25.9817 24.8444 24.8989C24.8444 24.1115 24.746 23.4224 24.8444 22.6349C24.9428 21.2568 25.0413 19.9772 25.2381 18.5991C25.435 17.7131 25.435 16.7288 25.6319 15.8429C25.8288 14.8585 26.0256 13.8741 26.1241 12.8898C26.2225 12.1023 26.6162 11.807 27.3053 12.1023C27.6006 12.2007 27.7975 12.2992 28.0928 12.3976C28.9787 12.6929 29.8646 12.9882 30.6521 13.2835C32.3255 13.9726 33.9989 14.5632 35.6723 15.3507C37.1489 16.0397 38.5269 16.9256 39.905 17.91C40.6925 18.9928 41.6769 19.5834 42.4644 20.3709ZM54.5719 61.7139C54.4735 61.7139 54.4735 61.8123 54.5719 61.7139C54.4735 61.8123 54.4735 62.0092 54.4735 62.1076C54.4735 63.092 54.2767 64.0763 53.8829 64.9622C53.3907 66.3403 52.6032 67.62 51.8158 68.8997C51.7173 69.0965 51.5205 68.9981 51.422 68.8997C50.8314 68.4075 50.2408 67.9153 49.6502 67.4231C49.0596 66.9309 48.469 66.3403 47.9768 65.7497C47.2877 64.9622 46.7955 63.9779 46.4018 62.8951C46.3034 63.3873 46.4018 63.8795 46.3034 64.3716C46.2049 65.2576 46.1065 66.045 45.8112 66.9309C45.6143 67.4231 45.4174 67.9153 45.6143 68.5059C45.9096 69.5887 46.5002 70.5731 47.2877 71.3605C48.3705 72.3449 49.3549 73.3293 50.733 73.9199C51.3236 74.2152 51.9142 74.6089 52.5048 74.9042C52.6032 75.0027 52.7017 75.0027 52.8001 74.9042C53.7845 73.6246 54.8673 72.4433 55.7532 71.0652C56.5407 69.6871 57.1313 68.3091 57.1313 66.7341C57.1313 66.3403 57.1313 65.9466 56.836 65.6513C56.1469 64.8638 55.5563 63.8795 55.0641 62.8951C54.9657 62.5998 54.7688 62.206 54.5719 61.7139ZM46.5002 38.3846C46.7956 37.6956 47.0909 37.0065 47.4846 36.4159C48.0752 35.53 48.7642 34.8409 49.5517 34.0535C50.2408 33.4628 50.9298 32.8722 51.6189 32.2816C51.8158 32.1832 51.9142 32.1832 52.0126 32.3801C52.7017 33.4628 53.2923 34.5456 53.7845 35.7269C54.2767 36.8096 54.6704 37.9909 54.5719 39.2705C54.5719 39.369 54.4735 39.4674 54.6704 39.5658C54.6704 39.4674 54.7688 39.4674 54.7688 39.369C55.261 38.1877 55.8516 37.105 56.6391 36.0222C56.836 35.7269 57.1313 35.53 57.2297 35.1362C57.525 34.2503 57.3282 33.3644 57.1313 32.4785C56.836 31.0019 55.9501 29.8207 55.1626 28.6395C54.572 27.7536 53.7845 26.9661 53.0954 26.1786C52.997 25.9817 52.8985 26.0802 52.7017 26.1786C51.8158 26.6708 50.9298 27.163 50.0439 27.7536C49.4533 28.1473 48.8627 28.6395 48.2721 29.1317C47.0908 30.0176 46.2049 31.1988 45.8112 32.6753C45.7127 32.9706 45.7127 33.1675 45.8112 33.4628C46.2049 35.1362 46.4018 36.7112 46.5002 38.3846ZM54.8673 61.4186C55.6548 62.5014 56.4422 63.5841 56.9344 64.8638C57.1313 65.356 57.2297 65.8482 57.7219 66.1435C58.9031 66.9309 60.0843 67.3247 61.4624 67.3247C62.1515 67.3247 62.8406 67.3247 63.5296 67.3247C64.8093 67.2263 65.9905 66.931 67.2701 66.7341C67.467 66.7341 67.467 66.6356 67.467 66.4388C67.467 65.8482 67.5655 65.2575 67.467 64.6669C67.467 64.1747 67.5655 63.6826 67.467 63.2888C67.3686 62.5013 67.1717 61.6154 67.0733 60.8279C66.8764 59.4498 66.1874 58.1702 65.203 57.1858C65.0061 56.989 64.8093 56.7921 64.514 56.7921C63.5296 56.6936 62.5452 56.2999 61.6593 55.9062C61.1671 55.7093 60.675 55.5124 60.1828 55.2171C60.7734 56.0046 61.2656 56.6936 61.5609 57.5796C62.1515 59.1545 62.4468 60.7295 62.7421 62.3045C62.8406 62.6982 62.7421 62.6982 62.3484 62.6982C61.364 62.6982 60.3797 62.6982 59.4937 62.5998C58.5094 62.5014 57.525 62.4029 56.5407 62.0092C55.95 62.0092 55.4579 61.6154 54.8673 61.4186ZM54.8673 39.9596C55.0641 39.8612 55.1626 39.8612 55.261 39.7627C56.1469 39.1721 57.2297 38.8768 58.2141 38.7784C58.8047 38.6799 59.3953 38.6799 59.9859 38.6799C60.8718 38.5815 61.6593 38.6799 62.5452 38.6799C62.7421 38.6799 62.8406 38.7784 62.7421 38.9752C62.5453 40.1565 62.3484 41.4361 61.9546 42.6174C61.6593 43.7001 61.2656 44.7829 60.4781 45.6689C60.2812 45.8657 60.1828 46.0626 59.9859 46.3579C60.1828 46.2595 60.1828 46.2595 60.2812 46.161C61.364 45.5704 62.5452 45.0782 63.8249 44.7829C64.1202 44.6845 64.5139 44.6845 64.8092 44.4876C65.6952 43.7986 66.1874 42.9127 66.5811 41.9283C66.8764 41.2393 66.9749 40.5502 67.0733 39.8611C67.1717 39.1721 67.3686 38.5815 67.3686 37.8924C67.3686 37.1049 67.467 36.3175 67.3686 35.53C67.3686 35.3331 67.467 34.9394 67.3686 34.8409C67.2701 34.6441 66.8764 34.7425 66.6796 34.6441C65.8921 34.4472 65.0061 34.2503 64.2187 34.2503C63.0374 34.1519 61.9546 34.0534 60.7734 34.2503C59.6906 34.3488 58.6078 34.7425 57.7219 35.4315C57.4266 35.6284 57.2297 35.8253 57.1313 36.1206C57.0328 36.5143 56.836 36.8096 56.7375 37.1049C56.2454 37.9909 55.6548 38.9752 54.8673 39.9596ZM60.2812 54.7249C60.3797 54.8234 60.4781 54.8234 60.4781 54.8234C61.7578 55.1187 62.939 55.5124 64.1202 56.103C64.4155 56.2999 64.7108 56.4968 65.203 56.4968C66.2858 56.4968 67.1717 56.103 68.1561 55.6109C69.2389 55.0202 70.1248 54.1343 71.0107 53.3468C71.7982 52.5593 72.3888 51.6734 73.0779 50.8859C73.2747 50.6891 73.1763 50.4922 72.9794 50.3938C72.6841 50 72.2904 49.6063 71.9951 49.2125C71.6013 48.8188 71.306 48.2282 70.8138 47.8344C70.3217 47.4407 69.8295 46.9485 69.3373 46.5548C68.2545 45.6689 67.0733 45.0782 65.6952 44.8814C65.3999 44.8814 65.1046 44.7829 64.7108 44.9798C63.5296 45.6688 62.3484 46.0626 61.0687 46.3579C60.7734 46.4563 60.5765 46.4563 60.2812 46.5548C61.364 46.7516 62.3484 47.1454 63.2343 47.6376C64.6124 48.4251 65.7936 49.4094 66.9748 50.4922C67.0733 50.5906 67.0733 50.6891 66.9748 50.7875C66.4827 51.1813 65.8921 51.6734 65.3999 52.0672C63.9233 53.3468 62.3484 54.4296 60.2812 54.7249ZM46.0081 63.092C45.8112 63.092 45.8112 63.1904 45.7127 63.2888C44.9253 64.1748 44.0394 64.7654 43.055 65.356C41.8738 65.9466 40.4957 66.4388 39.3144 66.9309C39.216 66.9309 39.1176 66.931 39.0191 66.7341C38.9207 66.4388 38.9207 66.2419 38.8222 65.9466C38.6254 65.0607 38.5269 64.0763 38.4285 63.092C38.3301 62.0092 38.3301 61.0248 38.6254 59.942C38.7238 59.5483 38.8223 59.253 38.9207 58.8592C38.8223 58.9577 38.8222 58.9577 38.8222 58.9577C37.9363 59.942 36.952 60.8279 35.8692 61.517C35.4754 61.8123 34.9832 62.0092 34.7864 62.5998C34.4911 63.3873 34.2942 64.2732 34.1958 65.1591C34.1958 66.3403 34.4911 67.5216 34.688 68.6044C34.9833 69.7856 35.4754 70.8684 35.8692 71.9512C35.8692 72.0496 35.9676 72.0496 36.0661 72.0496C37.0504 71.8527 38.1332 71.7543 39.1176 71.5574C40.0035 71.3605 40.6925 71.0653 41.5785 70.77C42.9566 70.2778 44.0393 69.4903 44.8268 68.4075C45.0237 68.1122 45.1221 67.8169 45.1221 67.4231C45.1221 66.7341 45.2206 66.1435 45.319 65.5529C45.6143 64.6669 45.7128 63.8794 46.0081 63.092ZM35.9676 50.4922C35.8692 50.3938 35.7707 50.3938 35.7707 50.2953C35.7707 50.2953 35.6723 50.2953 35.6723 50.1969C34.2942 49.4094 33.3099 48.2282 32.4239 46.9485C31.9318 46.161 31.4396 45.2751 30.9474 44.3892C30.849 44.2908 30.9474 44.0939 31.0458 44.0939C32.2271 43.7001 33.4083 43.208 34.5895 42.9127C35.6723 42.6174 36.8535 42.5189 37.9363 42.6174C38.1332 42.6174 38.4285 42.7158 38.7238 42.7158C38.3301 42.4205 37.9363 42.2236 37.641 41.9283C36.8536 41.3377 36.1645 40.8455 35.5739 40.058C35.2786 39.6643 34.9833 39.369 34.3926 39.2705C33.3099 39.0737 32.1286 39.0737 31.0458 39.369C28.9787 39.9596 27.2069 40.9439 25.3366 42.0267C25.1397 42.1252 25.2381 42.2236 25.2381 42.4205C25.435 42.9127 25.6319 43.4048 25.7303 43.7986C26.2225 45.472 27.1084 47.0469 28.1912 48.425C28.7818 49.2125 29.5693 49.8031 30.4552 50.1969C30.7505 50.2953 31.0458 50.3938 31.3411 50.2953C32.0302 50.1969 32.7192 50.0985 33.4083 50.0985C34.1958 50.2953 34.9833 50.2953 35.9676 50.4922ZM46.0081 38.2862C46.0081 38.1878 46.0081 38.0893 46.0081 38.0893C45.5159 36.7112 45.2206 35.3331 45.2206 33.8566C45.2206 33.5613 45.1221 33.266 44.9253 32.9707C44.63 32.4785 44.1378 32.0847 43.744 31.691C42.4644 30.6082 40.8894 30.2145 39.3144 29.7223C38.3301 29.427 37.2473 29.3285 36.1645 29.1317C35.9676 29.1317 35.9676 29.1317 35.8692 29.3285C35.4754 30.5098 34.8848 31.691 34.688 32.9707C34.4911 34.2503 34.0973 35.4315 34.2942 36.7112C34.3926 37.4003 34.5895 38.0893 34.8848 38.7784C34.9833 39.0737 35.2786 39.2705 35.5739 39.4674C36.3614 39.8612 36.952 40.4518 37.641 41.0424C38.1332 41.4361 38.6254 41.9283 39.0191 42.4205C39.0191 42.322 39.0191 42.322 39.0191 42.2236C38.6254 41.0424 38.4285 39.8612 38.4285 38.6799C38.5269 37.3018 38.7238 35.9237 39.0191 34.5456C39.0191 34.4472 39.1176 34.3488 39.3144 34.3488C40.0035 34.6441 40.791 34.8409 41.48 35.1362C42.4644 35.53 43.4487 36.0222 44.3346 36.6128C44.9253 37.1049 45.4175 37.794 46.0081 38.2862ZM38.7238 58.5639C38.5269 58.5639 38.4285 58.5639 38.4285 58.5639C37.5426 58.7608 36.5582 58.7608 35.6723 58.5639C34.0974 58.2686 32.6208 57.678 31.0458 57.1858C30.9474 57.0874 30.849 56.989 30.9474 56.8905C31.0458 56.7921 31.0458 56.7921 31.0458 56.6936C31.538 55.7093 32.1286 54.7249 32.8177 53.839C33.5067 52.9531 34.1958 52.0672 35.1801 51.4766C35.377 51.2797 35.6723 51.1813 35.9676 50.9844C35.6723 51.0828 35.4755 51.0828 35.1801 51.0828C33.9989 51.1813 32.9161 51.2797 31.7349 51.0828C31.4396 51.0828 31.1443 50.9844 30.849 50.9844C30.0615 51.1813 29.4709 51.6734 28.8802 52.1656C28.1912 52.7562 27.699 53.5437 27.2069 54.3312C26.3209 55.8077 25.8288 57.3827 25.2381 58.9577C25.1397 59.0561 25.2381 59.1545 25.3366 59.253C26.5178 59.942 27.6006 60.7295 28.8802 61.2217C30.2583 61.7139 31.6365 62.3045 33.2114 62.206C34.0974 62.1076 34.9833 62.0092 35.4754 61.2217C35.5739 61.0248 35.7707 60.9264 35.8692 60.7295C36.7551 59.942 37.641 59.1545 38.7238 58.5639ZM46.894 40.7471C46.9924 40.6486 47.0908 40.5502 47.1893 40.4518C48.0752 39.4674 49.158 38.7784 50.3392 38.0893C50.5361 37.9909 50.733 37.8924 50.9298 38.0893C51.6189 38.7784 52.2095 39.5658 52.6032 40.4518C52.8985 40.9439 53.0954 41.4361 53.2923 41.9283C53.4892 41.4361 53.7845 41.1408 53.9813 40.7471C54.1782 39.8612 54.1782 38.9752 53.9813 38.0893C53.5876 36.3175 52.7017 34.7425 51.7173 33.1675C51.6189 32.9706 51.5205 32.9707 51.3236 33.0691C50.4377 33.7581 49.5517 34.5456 48.7643 35.4315C47.8783 36.3175 47.2877 37.3018 46.894 38.4831C46.7955 38.8768 46.6971 39.2705 46.6971 39.6643C46.6971 39.9596 46.7955 40.2549 46.894 40.7471ZM53.3907 59.4498C53.3907 59.5483 53.2923 59.5483 53.2923 59.5483C52.8001 60.9264 51.9142 62.0092 51.0283 63.092C50.8314 63.3873 50.6345 63.3873 50.3392 63.1904C49.158 62.5013 48.0752 61.8123 47.1893 60.8279C47.0908 60.7295 46.9924 60.6311 46.7955 60.4342C46.894 60.9264 46.6971 61.3201 46.6971 61.7139C46.6971 62.7966 47.1893 63.6826 47.7799 64.5685C48.7643 65.9466 50.0439 67.0294 51.3236 68.1122C51.5205 68.309 51.6189 68.3091 51.8158 68.0137C52.7017 66.5372 53.4892 65.1591 53.9813 63.4857C54.2766 62.5998 54.2766 61.6154 54.0798 60.6311C53.9813 60.3358 53.4892 59.942 53.3907 59.4498ZM38.4285 50.7875C37.9363 50.8859 37.641 50.8859 37.2473 50.7875H37.1489C36.2629 50.9844 35.5739 51.4766 34.9833 51.9687C33.5067 53.15 32.6208 54.8234 31.7349 56.4968C31.6365 56.6937 31.6364 56.7921 31.9318 56.8905C32.6208 57.1858 33.3099 57.4811 33.9989 57.678C35.0817 57.9733 36.2629 58.2686 37.4442 58.2686C37.9363 58.2686 38.4285 58.1702 38.9207 58.0717C39.3144 57.9733 39.7082 57.8749 39.905 57.678C40.2004 57.3827 40.3972 57.1858 40.791 56.989C40.6925 56.989 40.6925 56.8905 40.5941 56.8905C39.1176 56.5952 37.8379 56.0046 36.6567 55.2171C36.4598 55.1187 36.3614 54.8234 36.4598 54.6265C36.7551 53.7406 37.1489 52.8547 37.5426 52.0672C37.641 51.7719 38.0348 51.2797 38.4285 50.7875ZM40.5941 44.2908C40.2004 44.0939 39.9051 43.6017 39.5113 43.4048C38.4285 42.9127 37.1488 42.9127 35.9676 43.0111C34.5895 43.208 33.2114 43.7001 31.8333 44.1923C31.4396 44.3892 31.4396 44.3892 31.6365 44.7829C32.1286 45.6688 32.6208 46.4563 33.113 47.2438C33.7036 48.0313 34.2942 48.7204 35.0817 49.311C36.0661 50 37.0504 50.4922 38.2316 50.2953C38.2316 50.2953 38.2316 50.2953 38.2316 50.1969C38.2316 50.0985 38.1332 50.0985 38.1332 50C37.2473 48.9172 36.7551 47.6376 36.2629 46.3579C36.1645 46.0626 36.1645 45.8657 36.4598 45.7673C36.7551 45.6688 37.0504 45.472 37.2473 45.2751C38.3301 44.9798 39.4129 44.4876 40.5941 44.2908ZM40.8894 57.2843C40.5941 57.5796 40.3972 57.7764 40.1019 57.9733C39.8066 58.0718 39.7082 58.3671 39.6097 58.6624C39.0191 59.8436 38.8223 61.0248 38.9207 62.3045C38.9207 63.5841 39.1176 64.8638 39.4129 66.045C39.4129 66.2419 39.5113 66.3403 39.7082 66.2419C40.8894 65.8482 42.0706 65.4544 43.2519 64.8638C44.3346 64.2732 45.2206 63.5841 45.9096 62.6982C46.3034 62.206 46.4018 61.6154 46.5002 61.0248C46.5002 60.9264 46.5987 60.8279 46.5002 60.8279C46.4018 60.7295 46.3034 60.8279 46.3034 60.9264C45.1221 61.6154 43.8425 61.8123 42.5628 62.1076C42.0706 62.206 41.9722 62.1076 41.7753 61.7139C41.2831 60.1389 40.791 58.7608 40.8894 57.2843ZM40.8894 44.0939C40.8894 42.6174 41.2831 41.2392 41.7753 39.8611C41.8738 39.4674 42.1691 39.369 42.4644 39.4674C43.3503 39.6643 44.1378 39.7627 45.0237 40.058C45.5159 40.2549 45.9096 40.4518 46.4018 40.6486C46.5002 40.6486 46.6971 40.8455 46.5987 40.5502C46.5002 40.2549 46.5002 39.8611 46.4018 39.5658C46.1065 38.5815 45.4174 37.9909 44.6299 37.4003C43.1534 36.219 41.48 35.6284 39.7082 35.0378C39.5113 34.9394 39.4129 35.0378 39.4129 35.2347C39.0191 36.8096 38.8223 38.3846 38.9207 39.9596C38.9207 40.8455 39.216 41.5346 39.5113 42.322C39.6097 43.208 40.2988 43.5033 40.8894 44.0939ZM53.5876 59.3514C53.7845 59.6467 53.9813 59.942 54.0798 60.1389C54.1782 60.3358 54.2767 60.4342 54.3751 60.5326C55.3595 61.4186 56.5407 61.9107 57.8203 62.1076C59.1 62.3045 60.3797 62.3045 61.5609 62.3045C62.1515 62.3045 62.1515 62.3045 62.0531 61.7139C62.0531 61.517 61.9546 61.4185 61.9546 61.2217C61.7578 59.942 61.4624 58.6624 60.9703 57.3827C60.5765 56.3983 59.9859 55.5124 59.1 54.8234C58.7062 54.5281 58.2141 54.5281 57.7219 54.2328C57.7219 54.3312 57.7219 54.4296 57.7219 54.4296C58.2141 55.7093 58.2141 57.0874 58.2141 58.5639C58.2141 58.8592 58.1156 59.0561 57.7219 59.1545C56.836 59.3514 55.95 59.4498 55.0641 59.4498C54.7688 59.4498 54.1782 59.3514 53.5876 59.3514ZM57.8203 47.1454C58.3125 46.7517 58.8047 46.7516 59.1984 46.5548C59.789 46.161 60.2812 45.472 60.675 44.8814C61.6593 43.208 61.9546 41.2392 62.2499 39.369C62.2499 39.1721 62.2499 39.1721 62.0531 39.1721C61.364 39.1721 60.675 39.0737 59.9859 39.1721C59.1 39.1721 58.2141 39.2705 57.3282 39.4674C56.2454 39.7627 55.3594 40.1565 54.4735 40.8455C54.0798 41.1408 53.9813 41.7314 53.5876 42.1252C53.686 42.1252 53.7845 42.1252 53.7845 42.1252C54.572 42.0267 55.3594 41.9283 56.1469 42.0267C56.7375 42.1252 57.4266 42.1252 58.0172 42.322C58.2141 42.4205 58.4109 42.5189 58.4109 42.7158C58.4109 43.5033 58.411 44.2908 58.3125 45.0782C58.3125 45.6689 58.1157 46.3579 57.8203 47.1454ZM58.0172 47.3423C58.1156 47.4407 58.1156 47.4407 58.2141 47.5391C59.4937 48.2282 60.3796 49.311 61.364 50.3938C61.5609 50.5906 61.5609 50.7875 61.364 50.9844C60.5765 51.8703 59.8875 52.7562 58.9031 53.4453C58.6078 53.6421 58.3125 53.7406 58.1156 54.0359C58.3125 54.0359 58.4109 54.0359 58.5094 54.1343C58.8047 54.2327 59.1 54.4296 59.3953 54.4296C60.4781 54.5281 61.4624 54.2328 62.4468 53.7406C63.9233 53.0515 65.203 51.9687 66.4827 50.8859C66.6795 50.6891 66.6795 50.6891 66.4827 50.4922C65.203 49.4094 63.9233 48.2282 62.3484 47.5391C61.1671 47.047 59.8875 46.5548 58.6078 47.2438C58.3125 47.2438 58.2141 47.3423 58.0172 47.3423ZM57.7219 34.7425C58.5094 34.0534 59.2969 33.6597 59.8875 32.9707C60.2812 32.5769 60.7734 32.1832 61.1671 31.691C61.5609 31.1988 61.7578 30.7066 62.0531 30.2145C62.939 28.7379 63.1358 27.163 62.939 25.4896C61.8562 26.0802 60.8718 26.5723 60.1828 27.4583C59.3953 28.3442 58.8047 29.3285 58.4109 30.4113C58.2141 30.9035 58.2141 31.3957 58.0172 31.9863C57.8203 32.8722 57.8203 33.7581 57.7219 34.7425ZM62.939 75.8886C63.1358 74.9042 63.0374 74.0183 62.8405 73.034C62.6437 71.8527 61.9546 70.9668 61.364 69.9825C61.1671 69.6871 60.9703 69.4903 60.7734 69.195C60.2812 68.8012 59.8875 68.309 59.3953 67.9153C58.8047 67.4231 58.2141 67.0294 57.6235 66.6356C57.7219 67.0294 57.7219 67.4231 57.7219 67.8169C57.8203 68.8012 58.0172 69.7856 58.3125 70.77C58.8047 72.2465 59.5922 73.6246 60.8718 74.7074C61.5609 75.1011 62.2499 75.4949 62.939 75.8886ZM19.332 50.6891C20.2179 51.2797 21.1038 51.7719 22.0882 52.0672C22.6788 52.264 23.2694 52.264 23.9585 52.264C24.5491 52.264 25.0413 52.3625 25.6319 52.264C26.5178 52.0672 27.3053 51.7719 28.1912 51.4766C28.7818 51.2797 29.3724 50.9844 29.963 50.6891C29.4709 50.4922 29.0771 50.2953 28.6834 50.1969C27.2069 49.6063 25.6319 49.1141 24.0569 49.1141C22.2851 49.1141 20.8085 49.6063 19.332 50.6891ZM43.3503 22.0443C42.7597 23.2255 42.3659 24.5052 42.4644 25.7849C42.4644 26.277 42.6612 26.6708 42.6612 27.163C42.7597 27.852 42.8581 28.4426 43.1534 29.0332C43.6456 29.9192 44.0393 30.8051 44.6299 31.5926C44.8268 31.8879 45.0237 32.1832 45.2206 32.4785C45.2206 31.8879 45.4175 31.4941 45.5159 31.0019C45.8112 29.9192 45.9096 28.9348 46.0081 27.852C46.0081 27.163 45.8112 26.5723 45.7127 25.8833C45.4174 24.4068 44.5315 23.1271 43.3503 22.0443ZM43.3503 79.3338C44.1378 78.5464 44.8268 77.6604 45.319 76.6761C45.6143 75.8886 45.7128 75.1011 45.9096 74.3136C46.0081 73.8214 46.1065 73.3293 46.0081 72.9355C45.9096 72.4434 45.9096 71.9512 45.8112 71.5574C45.7127 70.6715 45.4174 69.7856 45.2206 68.8012C44.6299 69.884 43.9409 70.8684 43.3503 71.9512C42.6612 73.1324 42.5628 74.4121 42.4644 75.7902C42.3659 76.9714 42.8581 78.1526 43.3503 79.3338ZM34.3926 38.7784C34.0973 38.3846 33.9005 37.8924 33.7036 37.4987C32.9161 35.8253 31.7349 34.3488 30.1599 33.266C29.0771 32.4785 27.7975 32.1832 26.4194 31.9863C26.2225 31.9863 26.1241 31.8879 26.2225 32.2816C26.4194 32.8722 26.6162 33.4628 26.8131 33.955C27.3053 35.1362 28.2897 35.9237 29.274 36.7112C29.6678 37.0065 30.0615 37.3018 30.4552 37.4987C31.7349 37.9909 33.0145 38.4831 34.3926 38.7784ZM34.2942 62.5013C33.802 62.6982 33.4083 62.7966 32.9161 62.9935C31.4396 63.4857 29.9631 63.9779 28.7818 65.0607C27.6006 66.045 26.8131 67.2262 26.3209 68.6044C26.1241 69.2934 26.1241 69.2934 26.8131 69.195C27.7975 69.0965 28.6834 68.8012 29.5693 68.3091C30.2584 67.9153 30.7505 67.4231 31.3411 67.0294C31.7349 66.7341 31.9318 66.4388 32.2271 66.1435C33.0146 65.0607 33.7036 63.781 34.2942 62.5013ZM65.7936 56.989C66.1873 57.2843 66.4827 57.5796 66.8764 57.8749C67.5655 58.5639 68.353 59.0561 69.042 59.6467C69.6326 60.1389 70.4201 60.2373 71.1092 60.5326C72.5857 61.1232 74.1606 61.0248 75.6372 60.6311C75.7356 60.6311 75.834 60.5326 75.7356 60.4342C75.145 59.6467 74.5544 58.9577 73.7669 58.3671C72.2904 57.3827 70.7154 56.7921 68.8451 56.7921C67.8608 56.8905 66.8764 56.8905 65.7936 56.989ZM65.7936 44.3892C66.2858 44.2908 66.6796 44.4876 67.1717 44.4876C67.8608 44.4876 68.6482 44.3892 69.3373 44.4876C70.4201 44.4876 71.4044 44.0939 72.2904 43.7001C73.6685 43.208 74.7513 42.1252 75.5388 40.9439C75.6372 40.7471 75.6372 40.7471 75.4403 40.6486C75.145 40.5502 74.7513 40.5502 74.3575 40.4518C73.6685 40.3533 72.9794 40.3533 72.1919 40.4518C71.5029 40.5502 70.9123 40.8455 70.3217 40.9439C69.3373 41.2393 68.5498 41.8299 67.7623 42.4205C67.1717 43.0111 66.5811 43.7001 65.7936 44.3892ZM57.6235 53.7406C58.9031 53.0515 59.8875 52.0672 60.7734 50.9844C60.9703 50.7875 60.8718 50.6891 60.7734 50.4922C59.8875 49.4094 58.9031 48.425 57.6235 47.736C57.4266 48.3266 57.0328 48.8188 56.6391 49.4094C56.2454 50 55.8516 50.3938 55.3595 50.7875C56.4422 51.4766 57.1313 52.5594 57.6235 53.7406ZM55.0641 42.322C54.7688 42.2236 54.2767 42.4205 53.8829 42.4205C53.5876 42.4205 53.5876 42.5189 53.686 42.7158C53.9813 43.7986 54.0798 44.9798 53.8829 46.0626C53.8829 46.161 53.8829 46.2595 53.9813 46.2595C55.1626 46.161 56.2454 46.5548 57.2297 47.047C57.4266 47.1454 57.525 47.1454 57.6235 46.8501C58.0172 45.5704 58.1156 44.2908 58.1156 42.9127C58.1156 42.7158 58.0172 42.6174 57.8203 42.6174C56.9344 42.4205 56.0485 42.322 55.0641 42.322ZM55.0641 59.0561C56.0485 59.0561 56.9344 58.9577 57.8203 58.7608C58.0172 58.7608 58.1156 58.6624 58.1156 58.3671C58.1156 57.7764 58.1156 57.2843 58.0172 56.6936C58.0172 55.9062 57.8203 55.1187 57.525 54.4296C57.525 54.3312 57.4266 54.2327 57.3282 54.3312C56.2454 54.8234 55.1626 55.2171 53.8829 55.1187C53.7845 55.1187 53.7845 55.1187 53.7845 55.3155C53.8829 55.6108 53.8829 55.9062 53.8829 56.2015C53.8829 57.0874 53.7845 57.9733 53.5876 58.8592C53.4892 59.0561 53.5876 59.0561 53.7845 59.0561C54.1782 58.9577 54.6704 59.1545 55.0641 59.0561ZM49.6502 43.897C49.7486 43.7986 49.847 43.7001 49.847 43.6017C50.733 42.9127 51.7173 42.5189 52.7017 42.2236C52.8985 42.1252 52.997 42.1252 52.8986 41.9283C52.4064 40.6486 51.6189 39.6643 50.8314 38.5815C50.6345 38.3846 50.4377 38.3846 50.2408 38.4831C50.0439 38.5815 49.7486 38.7784 49.5517 38.8768C48.6658 39.4674 47.7799 40.058 47.0908 40.8455C46.9924 40.9439 46.894 41.0424 47.0908 41.1408C47.3861 41.2393 47.583 41.5346 47.8783 41.7314C48.6658 42.4205 49.2564 43.0111 49.6502 43.897ZM49.6502 57.4811C49.5517 57.678 49.5518 57.7764 49.4533 57.8749C48.8627 58.7608 48.0752 59.4498 47.2877 60.1389C47.1893 60.2373 47.0908 60.2373 47.1893 60.4342C48.0752 61.517 49.158 62.206 50.3392 62.8951C50.5361 62.9935 50.733 62.9935 50.8314 62.7967C51.6189 61.7139 52.5048 60.7295 52.997 59.4498C53.0954 59.253 52.997 59.1545 52.8986 59.1545C52.6033 59.1545 52.3079 58.9577 52.0126 58.8592C51.1267 58.4655 50.2408 58.1702 49.6502 57.4811ZM38.7238 50.3938C39.7082 49.6063 40.5941 48.7204 41.7753 48.425C41.8738 48.425 41.8738 48.3266 41.7753 48.2282C41.1847 47.2438 40.8894 46.0626 40.791 44.8814C40.791 44.6845 40.6925 44.6845 40.5941 44.7829C39.216 45.0782 38.0348 45.6689 36.8535 46.3579C36.6567 46.4563 36.6567 46.5548 36.6567 46.7516C37.2473 48.0313 37.8379 49.311 38.7238 50.3938ZM38.7238 50.9844C37.7394 52.0672 37.2473 53.3468 36.7551 54.7249C36.6567 54.9218 36.7551 55.0202 36.8535 55.1187C38.0348 55.8077 39.216 56.3983 40.5941 56.6936C40.791 56.6936 40.791 56.6937 40.791 56.4968C40.8894 55.3156 41.1847 54.2328 41.7753 53.2484C41.8738 53.0515 41.8737 53.0515 41.6769 52.9531C41.2831 52.8547 40.9878 52.6578 40.6925 52.4609C40.0035 52.0672 39.3144 51.575 38.7238 50.9844ZM46.5002 41.1408C45.319 40.3533 43.9409 40.058 42.5628 39.8611C42.3659 39.8611 42.1691 39.8612 42.0706 40.1565C41.9722 40.6486 41.7753 41.0424 41.5785 41.5346C41.3816 42.322 41.1847 43.1095 41.1847 43.9954C41.1847 44.1923 41.1847 44.2908 41.3816 44.1923C41.8738 44.0939 42.3659 44.1923 42.7597 44.1923C43.5472 44.1923 44.2362 44.3892 44.9253 44.5861C45.1221 43.3064 45.8112 42.2236 46.5002 41.1408ZM45.0237 56.6936C44.5315 56.989 44.0393 57.0874 43.4487 57.0874C42.8581 57.0874 42.1691 57.2843 41.5785 57.1858C41.3816 57.1858 41.1847 57.1858 41.1847 57.4811C41.1847 58.8592 41.6769 60.0405 42.0706 61.3201C42.1691 61.517 42.3659 61.517 42.4644 61.517C43.6456 61.2217 44.9253 61.0248 46.0081 60.4342C46.4018 60.2373 46.4018 60.2373 46.2049 59.7451C46.1065 59.5483 46.0081 59.4498 45.9096 59.253C45.5159 58.4655 45.0237 57.5796 45.0237 56.6936ZM47.9768 47.6376C47.9768 47.4407 48.0752 47.1454 48.0752 46.9485C48.1736 45.8657 48.6658 44.9798 49.3549 44.1923C49.4533 43.9955 49.4533 43.897 49.3549 43.7986C48.7643 42.9127 47.8783 42.1252 46.9924 41.4361C46.894 41.3377 46.7955 41.4361 46.7955 41.4361C46.2049 42.322 45.6143 43.3064 45.4174 44.3892C45.4174 44.4876 45.319 44.6845 45.5159 44.7829C46.5987 45.472 47.3862 46.4563 47.9768 47.6376ZM47.8783 53.6421C47.3862 54.8234 46.5987 55.7093 45.5159 56.3983C45.2206 56.5952 45.2206 56.6937 45.2206 56.989C45.5159 57.9733 46.008 58.9577 46.5987 59.8436C46.6971 59.942 46.6971 60.0405 46.894 59.8436C47.1893 59.6467 47.3861 59.4498 47.6815 59.253C48.2721 58.7608 48.8627 58.1702 49.2564 57.5796C49.3549 57.4811 49.4533 57.3827 49.3549 57.1858C48.469 56.2015 47.9768 55.0202 47.8783 53.6421ZM50.0439 53.4453C50.0439 53.5437 50.0439 53.6421 50.0439 53.7406C50.3392 54.8234 50.3392 55.9062 49.9455 56.989C49.8471 57.2843 49.9455 57.4811 50.1423 57.5796C51.0283 58.1702 51.9142 58.5639 52.8986 58.8592C53.0954 58.9577 53.1939 58.8592 53.1939 58.6624C53.3907 58.1702 53.3907 57.678 53.4892 57.1858C53.5876 56.5952 53.5876 56.103 53.4892 55.5124C53.4892 55.414 53.4892 55.2171 53.1939 55.2171C52.5048 55.1187 51.8158 54.8234 51.2251 54.5281C50.8314 54.1343 50.4376 53.7406 50.0439 53.4453ZM49.9455 48.0313C50.2408 47.736 50.5361 47.5391 50.733 47.3423C51.422 46.7516 52.2095 46.4563 53.0954 46.2595C53.4892 46.161 53.4892 46.0626 53.4892 45.7673C53.5876 45.2751 53.4892 44.8814 53.4892 44.3892C53.4892 43.7986 53.3907 43.3064 53.1939 42.7158C53.1939 42.5189 53.0954 42.5189 52.8986 42.5189C52.6033 42.6173 52.3079 42.7158 52.0126 42.8142C51.3236 43.1095 50.733 43.3064 50.1423 43.7986C49.9455 43.897 49.8471 44.0939 49.9455 44.3892C50.1424 44.8814 50.2408 45.472 50.2408 46.0626C50.2408 46.7516 50.1424 47.3423 49.9455 48.0313ZM45.319 50.6891C44.0393 50.3938 43.055 49.8032 42.2675 48.8188C42.0706 48.6219 41.9722 48.6219 41.7753 48.7204C40.791 49.2125 40.0035 49.8032 39.216 50.4922C39.0191 50.6891 39.0191 50.7875 39.216 50.8859C39.905 51.4766 40.5941 52.0672 41.3816 52.5594C41.9722 52.8547 41.9722 52.8546 42.4644 52.3625C42.4644 52.3625 42.4644 52.3625 42.5628 52.3625C43.2519 51.4766 44.2362 50.8859 45.319 50.6891ZM51.2251 49.7047C51.422 49.7047 51.5204 49.6063 51.5204 49.6063C52.7017 49.5079 53.8829 49.7047 54.8673 50.2953C55.0641 50.3938 55.1626 50.3938 55.3595 50.1969C56.1469 49.4094 56.6391 48.5235 57.1313 47.6376C57.2297 47.4407 57.1313 47.4407 57.0328 47.3423C56.6391 47.1454 56.3438 47.0469 55.95 46.9485C55.261 46.7516 54.572 46.4563 53.8829 46.5548C53.7845 46.5548 53.686 46.5548 53.686 46.6532C53.5876 47.1454 53.2923 47.6376 52.997 48.0313C52.6032 48.7204 51.9142 49.2125 51.2251 49.7047ZM46.1065 52.6578C46.008 52.6578 46.0081 52.6578 46.0081 52.6578C45.0237 53.15 43.9409 53.3468 42.8581 53.2484C42.1691 53.15 42.1691 53.15 41.8738 53.7406C41.48 54.6265 41.3816 55.5124 41.1847 56.3983C41.1847 56.5952 41.1847 56.6936 41.48 56.7921C42.1691 56.8905 42.7597 56.7921 43.4487 56.7921C43.8425 56.7921 44.3346 56.6937 44.7284 56.4968C44.8268 56.4968 44.9253 56.4968 44.9253 56.2999C44.8268 55.8077 45.0237 55.3155 45.1221 54.8234C45.2206 54.0359 45.6143 53.3468 46.1065 52.6578ZM46.1065 48.7204C45.9096 48.5235 45.8112 48.3266 45.7127 48.1298C45.1221 47.2438 44.9253 46.3579 44.9253 45.3736C44.9253 44.9798 44.8268 44.8814 44.5315 44.8814C43.5472 44.6845 42.5628 44.5861 41.5785 44.6845C41.2832 44.6845 41.2831 44.7829 41.2831 44.9798C41.3816 45.3735 41.3816 45.7673 41.48 46.161C41.5785 46.7517 41.7753 47.3423 42.0706 47.9329C42.1691 48.1297 42.2675 48.2282 42.5628 48.2282C43.2519 48.1297 43.9409 48.1297 44.6299 48.2282C45.1221 48.2282 45.5159 48.5235 46.1065 48.7204ZM51.422 51.7719C51.6189 51.8703 51.7173 51.9687 51.8158 52.0672C52.7017 52.6578 53.1938 53.5437 53.5876 54.4296C53.686 54.7249 53.7845 54.7249 54.0798 54.7249C55.1626 54.6265 56.1469 54.3312 57.1313 53.839C57.2297 53.7406 57.3282 53.7406 57.2297 53.6421C56.7375 52.6578 56.1469 51.6734 55.3595 50.8859C55.261 50.7875 55.1626 50.7875 54.9657 50.8859C54.3751 51.1812 53.7845 51.4766 53.0954 51.575C52.5048 51.7719 52.0126 51.6734 51.422 51.7719ZM42.4644 52.8546C43.4487 53.0515 44.3346 53.0515 45.2206 52.7562C46.3034 52.3625 47.1893 51.6734 48.0752 50.8859C45.8112 50.6891 43.9409 50.9844 42.4644 52.8546ZM47.9768 50.4922C46.894 49.5078 45.7127 48.6219 44.2362 48.425C43.6456 48.3266 43.055 48.3266 42.4644 48.5235C43.9409 50.2953 45.8112 50.6891 47.9768 50.4922ZM53.2923 54.7249C53.0954 54.0359 52.7017 53.4453 52.3079 52.8546C51.422 51.8703 50.2408 51.3781 49.0595 50.9844C48.9611 50.9844 48.8627 50.9844 48.8627 50.9844C48.7643 51.0828 48.8627 51.0828 48.8627 51.1812C48.9611 51.3781 49.158 51.575 49.2564 51.8703C49.7486 52.8546 50.5361 53.6421 51.6189 54.2328C52.2095 54.5281 52.7017 54.6265 53.2923 54.7249ZM53.2923 46.5548C52.4064 46.6532 51.7173 46.9485 51.0283 47.4407C50.0439 48.1297 49.4533 49.1141 48.8627 50.0985C48.8627 50.1969 48.7643 50.2953 48.8627 50.3938C48.9611 50.4922 49.0595 50.3938 49.0595 50.3938C49.6502 50.0985 50.4376 49.9016 51.0283 49.5078C52.2095 48.7204 52.8986 47.8344 53.2923 46.5548ZM54.7688 50.6891C54.0798 50.1969 53.3907 50 52.6032 49.9016C51.422 49.8031 50.2408 50.1969 49.158 50.5906C49.0596 50.5906 48.9611 50.6891 48.9611 50.6891C48.9611 50.7875 49.0596 50.7875 49.158 50.8859C49.3549 50.9844 49.5517 50.9844 49.7486 51.0828C50.6345 51.4766 51.5204 51.575 52.5048 51.575C53.2923 51.3781 54.0798 51.1812 54.7688 50.6891ZM48.2721 51.0828C47.9768 51.1813 47.8783 51.4766 47.583 51.575C46.1065 52.5594 45.4174 54.0359 45.2206 55.7093C45.2206 55.8077 45.2206 55.9062 45.319 56.0046C45.4174 56.103 45.5159 56.0046 45.6143 55.9062C46.2049 55.5124 46.6971 55.1187 47.0908 54.5281C47.8783 53.5437 47.9768 52.3625 48.2721 51.0828ZM48.1736 50.1969C48.1736 49.9016 48.0752 49.6063 47.9768 49.311C47.9768 48.5235 47.583 47.736 47.1893 47.047C46.7955 46.3579 46.2049 45.7673 45.4174 45.2751C45.2206 45.1767 45.0237 45.2751 45.1221 45.472C45.2206 45.7673 45.1221 46.0626 45.2206 46.3579C45.5159 47.5391 46.1065 48.5235 46.9924 49.311C47.4846 49.6063 47.7799 49.9016 48.1736 50.1969ZM49.5517 56.8905C49.9455 55.9062 50.0439 54.9218 49.847 53.9374C49.6502 52.9531 49.0595 52.0672 48.5674 51.0828C48.2721 52.3625 48.0752 53.5437 48.3705 54.8234C48.5674 55.6108 48.9611 56.2999 49.5517 56.8905ZM49.5517 44.3892C48.7642 45.1767 48.3705 46.0626 48.2721 47.1454C48.1736 47.736 48.3705 49.8032 48.5674 50.0985C49.7486 48.4251 50.4376 46.5548 49.5517 44.3892ZM42.1691 15.0554C41.6769 17.221 42.3659 18.9928 43.1534 20.8631C43.4487 18.7959 43.2518 16.8272 42.1691 15.0554ZM43.1534 80.5151C42.1691 82.09 41.6769 85.24 42.1691 86.2243C43.2518 84.4525 43.4487 82.4838 43.1534 80.5151ZM66.5811 19.2881C65.203 20.3709 63.8249 22.6349 63.628 24.3083C65.1046 23.0287 66.2858 21.3553 66.5811 19.2881ZM63.628 76.9714C64.1202 79.0385 64.9077 80.7119 66.5811 82.09C66.2858 79.9245 65.1046 78.3495 63.628 76.9714ZM25.2381 31.1988C24.1554 29.5254 22.7772 28.0489 20.7101 27.4583C21.6945 29.3285 23.3679 30.3129 25.2381 31.1988ZM25.2381 70.1793C23.3679 70.9668 21.7929 72.0496 20.7101 73.9199C22.7772 73.2308 24.0569 71.8527 25.2381 70.1793ZM82.4293 63.092C81.3465 62.1076 80.0668 61.3201 76.9169 61.1233C78.5903 62.206 80.2637 63.092 82.4293 63.092ZM76.9169 40.3533C77.9012 40.1565 78.8856 40.1565 79.8699 39.8611C80.8543 39.5658 81.6417 39.0737 82.5277 38.3846C80.2636 38.1877 78.5903 39.0737 76.9169 40.3533ZM18.1508 50.6891C16.1821 50.0985 14.3118 49.9016 12.4415 50.6891C14.3118 51.4766 16.1821 51.2797 18.1508 50.6891ZM33.9005 50.6891V50.5906C33.5067 50.5906 33.2114 50.4922 32.8177 50.6891C33.2114 50.6891 33.6052 50.6891 33.9005 50.6891ZM63.1359 45.3736C62.7421 45.472 62.4468 45.5704 62.0531 45.6689V45.7673C62.4468 45.5704 62.8406 45.472 63.1359 45.3736ZM45.7127 65.9466C45.8112 65.6513 45.9096 65.2575 45.9096 64.9622C45.8112 65.356 45.7127 65.6513 45.7127 65.9466ZM45.7127 35.3331C45.7127 35.7269 45.8112 36.0222 45.9096 36.3175C46.0081 36.0222 45.8112 35.7269 45.7127 35.3331Z" fill="#353535"/>
</svg>
